<svg width="19" height="19" viewBox="0 0 19 19" fill="none" xmlns="http://www.w3.org/2000/svg">
<path d="M17.5988 8.91876H10.4413V1.76128C10.4413 1.34082 10.1005 1 9.68004 1C9.25956 1 8.91875 1.34081 8.91875 1.76128V8.91842H1.76128C1.34082 8.91869 1 9.25922 1 9.67994C1 10.1007 1.34081 10.4412 1.76128 10.4412H8.91841V17.5984C8.91868 18.0196 9.25948 18.3599 9.67993 18.3599C10.1004 18.3599 10.4412 18.0196 10.4412 17.5986V10.4411H17.5983C18.0191 10.4411 18.3599 10.1006 18.3599 9.67984C18.3599 9.25909 18.0193 8.91876 17.5988 8.91876Z" fill="#657C97" stroke="#657C97" stroke-width="0.5"/>
</svg>
