<svg width="36" height="34" viewBox="0 0 36 34" fill="none" xmlns="http://www.w3.org/2000/svg">
<path d="M15.1758 27.6078V26.8966C15.1758 26.6801 15.0521 26.4018 14.8395 26.3129C14.422 26.1351 14.0123 25.9264 13.6219 25.6944C13.4363 25.5823 13.2508 25.4664 13.073 25.3427C12.984 25.2808 12.8951 25.219 12.8062 25.1532C12.7637 25.1223 12.7212 25.0875 12.6748 25.0566C12.8101 25.1571 12.6207 25.0141 12.5975 24.9948C12.2457 24.7126 11.9133 24.4033 11.604 24.0786C11.4533 23.9201 11.3103 23.7578 11.1711 23.5916C11.1015 23.5065 11.0358 23.4254 10.9662 23.3403C11.0667 23.4679 10.9546 23.3249 10.9392 23.3055C10.8967 23.2476 10.8541 23.1896 10.8116 23.1316C10.5488 22.7644 10.3091 22.3739 10.0965 21.9758C9.996 21.7825 9.89936 21.5854 9.81045 21.3843C9.78726 21.3341 9.76793 21.2838 9.74474 21.2336C9.81045 21.3843 9.73701 21.2143 9.72928 21.1911C9.68289 21.0712 9.63651 20.9514 9.59398 20.8316C9.44323 20.4102 9.3234 19.9812 9.23063 19.5483C9.18424 19.3279 9.14559 19.1037 9.1108 18.8795C9.13785 19.0496 9.10693 18.8602 9.10693 18.8331C9.0992 18.7752 9.09533 18.721 9.0876 18.6631C9.07214 18.5316 9.06441 18.3963 9.05281 18.261C9.02575 17.7972 9.02575 17.3294 9.06054 16.8656C9.06828 16.7574 9.07987 16.653 9.0876 16.5448C9.09147 16.4907 9.0992 16.4404 9.10693 16.3863C9.12626 16.2046 9.08374 16.5332 9.1108 16.3554C9.14559 16.1312 9.18424 15.9031 9.23063 15.6789C9.31953 15.2537 9.43936 14.8362 9.58625 14.4303C9.62104 14.3337 9.65583 14.2371 9.69448 14.1404C9.71381 14.094 9.73314 14.0438 9.75246 13.9974C9.81818 13.8351 9.69448 14.1288 9.76406 13.9703C9.85296 13.7655 9.94574 13.5645 10.0462 13.3673C10.2395 12.9885 10.456 12.6252 10.6956 12.2773C10.7536 12.1922 10.8116 12.111 10.8696 12.0299C10.9005 11.9873 10.9314 11.9487 10.9585 11.9062C11.059 11.767 10.8696 12.0183 10.9778 11.883C11.1054 11.7245 11.233 11.5699 11.3682 11.4152C11.6466 11.0983 11.9481 10.8006 12.2651 10.5223C12.4158 10.387 12.5743 10.2594 12.7328 10.1357C12.5975 10.2401 12.7328 10.1357 12.756 10.1203C12.7985 10.0894 12.8372 10.0584 12.8797 10.0314C12.9763 9.9618 13.073 9.89608 13.1696 9.83037C13.5214 9.59457 13.8886 9.38196 14.2674 9.18869C14.4491 9.09592 14.6385 9.01088 14.824 8.9297C14.6617 8.99928 14.824 8.9297 14.8511 8.91811C14.8975 8.89878 14.9477 8.87945 14.9941 8.86012C15.1062 8.8176 15.2183 8.77509 15.3343 8.73643C15.744 8.59727 16.1654 8.4813 16.5905 8.39626C16.7993 8.35374 17.0041 8.31895 17.2167 8.28803C17.0389 8.31509 17.2167 8.28803 17.2477 8.28417C17.3018 8.27644 17.352 8.27257 17.4062 8.26871C17.5298 8.25711 17.6535 8.24551 17.7811 8.23778C18.214 8.21072 18.647 8.21072 19.0799 8.23778C19.2925 8.25324 19.5051 8.27257 19.7177 8.29963C19.536 8.27644 19.7177 8.29963 19.7486 8.3035C19.8028 8.31123 19.853 8.31896 19.9071 8.32669C20.027 8.34602 20.1507 8.36921 20.2705 8.3924C20.6957 8.47744 21.1171 8.59341 21.5268 8.73257C21.72 8.79828 21.9133 8.87559 22.1066 8.9529C21.9442 8.88719 22.1066 8.9529 22.1336 8.9645C22.18 8.98383 22.2264 9.00702 22.2728 9.02635C22.381 9.0766 22.4893 9.12685 22.5975 9.18097C22.9763 9.37038 23.3436 9.58298 23.6953 9.82264C23.8654 9.93474 24.0277 10.0546 24.1901 10.1744C24.0509 10.07 24.1901 10.1744 24.2133 10.1937C24.2519 10.2247 24.2906 10.2556 24.3331 10.2904C24.4259 10.3638 24.5148 10.4411 24.6037 10.5184C24.9207 10.7968 25.2183 11.0944 25.5005 11.4114C25.6242 11.5505 25.744 11.6936 25.86 11.8366C25.8793 11.8598 25.9837 11.9989 25.8793 11.8598C25.9103 11.8984 25.9412 11.941 25.9721 11.9796C26.0417 12.0762 26.1113 12.1729 26.177 12.2695C26.4166 12.6174 26.6331 12.9846 26.8264 13.3596C26.9191 13.5413 27.0081 13.7268 27.0892 13.9124C27.1008 13.9394 27.1665 14.1018 27.1008 13.9394C27.1202 13.9858 27.1395 14.0361 27.1588 14.0825C27.2013 14.1945 27.2439 14.3067 27.2864 14.4187C27.4294 14.8285 27.5492 15.246 27.642 15.6673C27.6845 15.8722 27.7232 16.0809 27.7541 16.2896C27.758 16.3206 27.7812 16.4984 27.758 16.3206C27.7657 16.3747 27.7696 16.4249 27.7773 16.4791C27.7928 16.6028 27.8043 16.7265 27.8121 16.8502C27.8469 17.314 27.8507 17.7818 27.8198 18.2456C27.8043 18.4737 27.785 18.7017 27.7541 18.9298C27.7773 18.7597 27.7502 18.9491 27.7464 18.9762C27.7386 19.0303 27.727 19.0883 27.7193 19.1424C27.6961 19.2738 27.6729 19.4014 27.6459 19.5289C27.5531 19.9657 27.4333 20.3948 27.2825 20.8162C27.2438 20.9205 27.2052 21.0249 27.1665 21.1254C27.1472 21.1756 27.124 21.2259 27.1047 21.28C27.1665 21.1254 27.097 21.2993 27.0854 21.3225C26.9887 21.539 26.8844 21.7555 26.7761 21.9642C26.5635 22.3662 26.3239 22.7528 26.061 23.1238C25.9992 23.2128 25.9335 23.2978 25.8677 23.3867C25.9682 23.2553 25.8561 23.4022 25.8407 23.4215C25.8059 23.464 25.7711 23.5065 25.7363 23.5491C25.5856 23.7307 25.4309 23.9047 25.2686 24.0748C24.9555 24.4033 24.623 24.7087 24.2713 24.9909C24.2288 25.0257 24.1863 25.0605 24.1437 25.0914C24.2713 24.9909 24.1283 25.103 24.109 25.1185C24.0201 25.1842 23.935 25.246 23.8422 25.3079C23.649 25.4432 23.4518 25.5707 23.247 25.6906C22.872 25.9148 22.4777 26.1119 22.0757 26.2858C21.8631 26.3786 21.7394 26.6531 21.7394 26.8695V27.5962C21.7394 27.9519 22.0487 28.2882 22.4159 28.2727C22.7831 28.2572 23.0924 27.9751 23.0924 27.5962V26.8695C22.9803 27.0628 22.8681 27.2599 22.7561 27.4532C24.5574 26.6724 26.1036 25.3813 27.2401 23.781C28.3997 22.1459 29.0607 20.1822 29.1767 18.1876C29.2849 16.2819 28.8636 14.3646 27.9938 12.6715C27.1589 11.0403 25.8833 9.64868 24.3603 8.63211C22.7948 7.58839 20.9586 6.9931 19.0877 6.87329C17.1936 6.75346 15.2879 7.15547 13.5948 8.00585C11.9558 8.82536 10.5527 10.0855 9.52055 11.6007C8.46143 13.1547 7.85065 14.9831 7.71536 16.8501C7.56461 18.8563 8.00914 20.8896 8.94844 22.6638C9.85687 24.3801 11.2523 25.8374 12.9144 26.8347C13.3126 27.0744 13.7262 27.2831 14.1553 27.4687C14.0432 27.2754 13.9311 27.0783 13.819 26.885V27.5962C13.819 27.9518 14.1282 28.2881 14.4954 28.2727C14.8665 28.2688 15.1758 27.9905 15.1758 27.6078L15.1758 27.6078Z" fill="#0033FF"/>
<path d="M14.6574 30.9125H17.2048H21.2907H22.2223C22.5779 30.9125 22.9142 30.6033 22.8987 30.236C22.8833 29.8688 22.6011 29.5596 22.2223 29.5596H19.6749H15.5891H14.6574C14.3018 29.5596 13.9655 29.8688 13.981 30.236C14.0003 30.6033 14.2786 30.9125 14.6574 30.9125Z" fill="#0033FF"/>
<path d="M16.2812 33.5922H20.0656H20.6029C20.9585 33.5922 21.2948 33.2829 21.2793 32.9157C21.2639 32.5485 20.9817 32.2393 20.6029 32.2393H16.8185H16.2812C15.9256 32.2393 15.5893 32.5485 15.6048 32.9157C15.6202 33.2829 15.9024 33.5922 16.2812 33.5922Z" fill="#0033FF"/>
<path d="M16.0881 22.7799H18.8017C19.5323 22.7799 20.2281 22.5557 20.7499 22.0222C21.496 21.2569 21.6621 20.1165 21.2215 19.154C20.8156 18.2766 19.8918 17.7354 18.937 17.7238C18.6935 17.72 18.4461 17.7238 18.2025 17.7238H17.9513C17.8778 17.7238 17.8044 17.72 17.7309 17.7122C17.9087 17.7316 17.7387 17.7084 17.7039 17.7006C17.6536 17.689 17.6034 17.6774 17.557 17.6581C17.5261 17.6465 17.3714 17.5808 17.5299 17.6543C17.4835 17.6311 17.4372 17.6117 17.3946 17.5885C17.3521 17.5653 17.3057 17.5383 17.2671 17.5112C17.2362 17.4919 17.1163 17.3875 17.2439 17.4996C17.1704 17.4339 17.1009 17.3643 17.0313 17.2909C16.9501 17.2059 17.0274 17.2909 17.0429 17.3102C17.0042 17.2561 16.9656 17.202 16.9308 17.144C16.9037 17.1015 16.8844 17.0551 16.8612 17.0126C16.7839 16.8657 16.896 17.1479 16.8535 16.9855C16.8264 16.885 16.7993 16.7884 16.7762 16.6879C16.8148 16.8657 16.7723 16.6067 16.7723 16.5526C16.7723 16.4985 16.7762 16.4444 16.78 16.3941C16.7878 16.3168 16.7878 16.3245 16.7762 16.4173C16.7839 16.3825 16.7878 16.3477 16.7955 16.3168C16.8071 16.2665 16.8225 16.2163 16.838 16.1699C16.8496 16.139 16.9153 15.9844 16.8419 16.1428C16.8805 16.0578 16.923 15.9766 16.9733 15.8993C16.9965 15.8645 17.0197 15.8297 17.0429 15.7949C16.9424 15.9341 17.0429 15.8027 17.0661 15.7795C17.1009 15.7447 17.1356 15.706 17.1704 15.6751C17.1936 15.6519 17.2207 15.6326 17.2439 15.6094C17.1704 15.6635 17.1666 15.6674 17.2246 15.6249C17.3096 15.5707 17.3946 15.5205 17.4836 15.4741C17.6188 15.4007 17.3946 15.4857 17.4836 15.4741C17.5222 15.4702 17.5647 15.447 17.6034 15.4354C17.6536 15.42 17.7039 15.4123 17.7541 15.4007C17.9165 15.3581 17.6111 15.4007 17.7812 15.3968C17.8392 15.3929 17.8933 15.3891 17.9513 15.3891C18.8983 15.3775 19.8493 15.3891 20.7963 15.3891C21.1519 15.3891 21.4882 15.0798 21.4728 14.7126C21.4573 14.3454 21.1751 14.0361 20.7963 14.0361H18.0827C17.3521 14.0361 16.6563 14.2603 16.1345 14.7938C15.3884 15.5592 15.2222 16.6995 15.6629 17.662C16.0688 18.5395 16.9926 19.0806 17.9474 19.0922C18.1909 19.0961 18.4383 19.0922 18.6819 19.0922H18.9331C19.0066 19.0922 19.08 19.0961 19.1535 19.1038C18.9757 19.0845 19.1457 19.1077 19.1805 19.1154C19.2308 19.127 19.281 19.1386 19.3274 19.1579C19.3583 19.1695 19.513 19.2352 19.3545 19.1618C19.4009 19.185 19.4472 19.2043 19.4898 19.2275C19.5323 19.2507 19.5787 19.2777 19.6173 19.3048C19.6482 19.3241 19.7681 19.4285 19.6405 19.3164C19.714 19.3821 19.7835 19.4517 19.8531 19.5251C19.9343 19.6102 19.857 19.5251 19.8415 19.5058C19.8802 19.5599 19.9188 19.614 19.9536 19.672C19.9807 19.7145 20 19.7609 20.0232 19.8035C20.1005 19.9503 19.9884 19.6682 20.0309 19.8305C20.058 19.931 20.085 20.0277 20.1082 20.1282C20.0696 19.9503 20.1121 20.2093 20.1121 20.2635C20.1121 20.3176 20.1082 20.3717 20.1044 20.4219C20.0966 20.4993 20.0966 20.4915 20.1082 20.3987C20.1005 20.4335 20.0966 20.4683 20.0889 20.4993C20.0773 20.5495 20.0619 20.5998 20.0464 20.6461C20.0348 20.6771 19.9691 20.8317 20.0425 20.6732C20.0039 20.7582 19.9614 20.8394 19.9111 20.9167C19.8879 20.9515 19.8647 20.9863 19.8415 21.0211C19.942 20.8819 19.8415 21.0134 19.8183 21.0366C19.7835 21.0713 19.7488 21.11 19.714 21.1409C19.6908 21.1641 19.6637 21.1834 19.6405 21.2066C19.714 21.1525 19.7178 21.1487 19.6598 21.1912C19.5748 21.2453 19.4898 21.2955 19.4008 21.3419C19.2656 21.4154 19.4898 21.3303 19.4008 21.3419C19.3622 21.3458 19.3197 21.369 19.281 21.3806C19.2308 21.3961 19.1805 21.4038 19.1303 21.4154C18.9679 21.4579 19.2733 21.4154 19.1032 21.4192C19.0452 21.4231 18.9911 21.427 18.9331 21.427C17.9861 21.4386 17.0351 21.427 16.0881 21.427C15.7325 21.427 15.3962 21.7362 15.4116 22.1034C15.4271 22.4707 15.7093 22.7799 16.0881 22.7799H16.0881Z" fill="#0033FF"/>
<path d="M19.1188 14.7004V12.8489C19.1188 12.4932 18.8096 12.1569 18.4423 12.1724C18.0751 12.1879 17.7659 12.47 17.7659 12.8489V14.7004C17.7659 15.056 18.0751 15.3923 18.4423 15.3769C18.8096 15.3614 19.1188 15.0792 19.1188 14.7004Z" fill="#0033FF"/>
<path d="M19.1188 23.9553V22.1037C19.1188 21.7481 18.8096 21.4118 18.4423 21.4273C18.0751 21.4427 17.7659 21.7249 17.7659 22.1037V23.9553C17.7659 24.3109 18.0751 24.6472 18.4423 24.6318C18.8096 24.6124 19.1188 24.3341 19.1188 23.9553Z" fill="#0033FF"/>
<path d="M31.7243 18.2455H34.8709H35.3232C35.6788 18.2455 36.0151 17.9363 35.9996 17.569C35.9841 17.2018 35.702 16.8926 35.3232 16.8926H32.1766H31.7243C31.3687 16.8926 31.0324 17.2018 31.0479 17.569C31.0672 17.9363 31.3455 18.2455 31.7243 18.2455Z" fill="#0033FF"/>
<path d="M1.53879 18.2455H4.68535H5.13761C5.49323 18.2455 5.82954 17.9363 5.81407 17.569C5.79861 17.2018 5.51643 16.8926 5.13761 16.8926H1.99106H1.53879C1.18317 16.8926 0.846864 17.2018 0.86233 17.569C0.877796 17.9363 1.15997 18.2455 1.53879 18.2455Z" fill="#0033FF"/>
<path d="M19.1073 4.27579V1.12924V0.676977C19.1073 0.321354 18.7981 -0.014952 18.4309 0.000513544C18.0636 0.0159791 17.7544 0.298155 17.7544 0.676977V3.82353V4.27579C17.7544 4.63141 18.0636 4.96772 18.4309 4.95225C18.7981 4.93293 19.1073 4.65461 19.1073 4.27579Z" fill="#0033FF"/>
<path d="M9.39334 7.5767C8.63568 6.81904 7.88191 6.06527 7.12425 5.30761L6.80341 4.98677C6.55216 4.73551 6.0922 4.71619 5.84862 4.98677C5.60123 5.25736 5.5819 5.67484 5.84862 5.94157L8.11771 8.21065C8.22594 8.31888 8.33031 8.42326 8.43855 8.53149C8.68981 8.78275 9.14976 8.80208 9.39334 8.53149C9.6446 8.26478 9.66392 7.84343 9.39334 7.5767Z" fill="#0033FF"/>
<path d="M28.4233 8.53153C29.1809 7.77387 29.9347 7.0201 30.6923 6.26244L31.0132 5.9416C31.2644 5.69034 31.2838 5.23038 31.0132 4.9868C30.7426 4.73941 30.3251 4.72009 30.0584 4.9868L27.7893 7.25589C27.6811 7.36412 27.5767 7.46849 27.4685 7.57673C27.2172 7.82799 27.1979 8.28795 27.4685 8.53153C27.7352 8.78279 28.1565 8.80211 28.4233 8.53153Z" fill="#0033FF"/>
</svg>
