<svg width="18" height="18" viewBox="0 0 18 18" fill="none" xmlns="http://www.w3.org/2000/svg">
<path d="M13.7444 0.50239C13.4123 0.17874 12.9673 -0.0017369 12.5046 1.26017e-05C12.0561 0.00702184 11.6273 0.18681 11.3068 0.50239L7.67135 4.1868L0.723611 11.2732C0.424715 11.5767 0.243702 11.9776 0.213167 12.4036L0.00477468 16.0043C-0.0328926 16.5144 0.153698 17.0155 0.515219 17.3754C0.84324 17.7078 1.28897 17.896 1.75495 17.8988L5.39038 17.6894H5.3902C5.81902 17.6702 6.22324 17.4821 6.51533 17.1662L17.0675 6.40585C17.3915 6.0666 17.5724 5.61467 17.5724 5.14455C17.5724 4.67442 17.3916 4.22247 17.0675 3.88324L13.7444 0.50239ZM5.14038 15.5751L2.08829 15.7739L2.23408 12.6965L9.93182 4.84617L12.8067 7.77691L5.14038 15.5751ZM14.2551 6.28024L11.4009 3.37037L12.5154 2.23996L15.38 5.1707L14.2551 6.28024Z" fill="#657C97"/>
</svg>
