<svg width="18" height="13" viewBox="0 0 18 13" fill="none" xmlns="http://www.w3.org/2000/svg">
<path d="M15.8168 12H2.44902C2.06476 11.9995 1.69656 11.8467 1.42487 11.5751C1.15318 11.3034 1.0004 10.9351 1 10.551V2.44902C1.00039 2.06489 1.15318 1.69656 1.42487 1.42487C1.69656 1.15331 2.06476 1.00053 2.44902 1H15.8168C16.2011 1.00052 16.5693 1.15331 16.841 1.42487C17.1127 1.69656 17.2654 2.06489 17.2658 2.44902V10.551C17.2654 10.9351 17.1127 11.3034 16.841 11.5751C16.5693 11.8467 16.2011 11.9995 15.8168 12ZM2.44902 1.57961C2.21848 1.57987 1.99749 1.6716 1.83447 1.83461C1.67146 1.9975 1.57986 2.21861 1.5796 2.44903V10.551C1.57986 10.7815 1.67146 11.0025 1.83447 11.1655C1.99749 11.3284 2.21847 11.4201 2.44902 11.4204H15.8168C16.0474 11.4201 16.2683 11.3284 16.4314 11.1655C16.5944 11.0025 16.686 10.7815 16.6862 10.551V2.44903C16.686 2.21861 16.5944 1.9975 16.4314 1.83461C16.2683 1.6716 16.0474 1.57987 15.8168 1.57961H2.44902Z" fill="#0033FF" stroke="#0033FF" stroke-width="0.5"/>
<path d="M9.13598 7.45711C8.80607 7.45685 8.48625 7.34364 8.22944 7.13651L1.73251 1.92897C1.67261 1.88084 1.63405 1.81097 1.62564 1.73464C1.61723 1.65831 1.63949 1.58172 1.68749 1.52169C1.78749 1.39684 1.96992 1.37665 2.09477 1.47666L8.5917 6.68421H8.59183C8.74514 6.80841 8.93648 6.87646 9.13391 6.87685C9.33134 6.87724 9.52294 6.81009 9.67679 6.68654L16.1807 1.51211C16.3059 1.41236 16.4882 1.43306 16.588 1.55817C16.6877 1.6834 16.667 1.8657 16.5418 1.96545L10.0379 7.13988C9.78185 7.34494 9.46371 7.45685 9.13575 7.45711H9.13598Z" fill="#0033FF" stroke="#0033FF" stroke-width="0.5"/>
<path d="M1.87141 11.549C1.74928 11.5491 1.64009 11.4726 1.59856 11.3578C1.55703 11.2429 1.59209 11.1143 1.68614 11.0363L7.56637 6.15958H7.56624C7.6894 6.05738 7.87208 6.07432 7.97441 6.19749C8.07662 6.32066 8.05954 6.50334 7.93638 6.60554L2.05616 11.4822C2.00428 11.5254 1.93881 11.5491 1.87128 11.549L1.87141 11.549Z" fill="#0033FF" stroke="#0033FF" stroke-width="0.5"/>
<path d="M16.3916 11.553C16.3241 11.553 16.2586 11.5294 16.2069 11.4861L10.3339 6.61042C10.2108 6.50821 10.1937 6.32553 10.2959 6.20238C10.3982 6.07921 10.5809 6.06226 10.7041 6.16447L16.577 11.0401C16.6709 11.1182 16.706 11.2468 16.6645 11.3616C16.6229 11.4765 16.5137 11.5531 16.3916 11.553L16.3916 11.553Z" fill="#0033FF" stroke="#0033FF" stroke-width="0.5"/>
</svg>
