<svg width="28" height="28" viewBox="0 0 28 28" fill="none" xmlns="http://www.w3.org/2000/svg">
<path d="M8.87394 0H4.31142C3.96326 0 3.68083 0.282396 3.68083 0.630583V2.56569H3.37614C1.51466 2.56569 0 4.08017 0 5.94165V24.2423C0 26.104 1.51448 27.6184 3.37614 27.6184H24.6239C26.4853 27.6184 28 26.1039 28 24.2423V5.94165C28 4.08017 26.4855 2.56569 24.6239 2.56569H24.3192V0.630583C24.3192 0.282425 24.0368 0 23.6886 0H19.1261C18.7779 0 18.4955 0.282396 18.4955 0.630583V2.56569H9.50428V0.630583C9.50428 0.282425 9.2221 0 8.87369 0H8.87394ZM4.942 1.26111H8.24342V4.73364H4.942V1.26111ZM24.6239 26.357H3.37621C2.20993 26.357 1.26112 25.4083 1.26112 24.2419V9.82811H26.7392V24.2419C26.7392 25.4082 25.7905 26.357 24.6242 26.357H24.6239ZM19.7567 1.26111H23.0581V4.73364H19.7567V1.26111ZM18.4956 3.82679V5.36422C18.4956 5.71238 18.778 5.9948 19.1262 5.9948H23.6887C24.0369 5.9948 24.3193 5.71241 24.3193 5.36422V3.82679H24.624C25.7903 3.82679 26.7391 4.77555 26.7391 5.94165V8.56746H1.26096V5.94165C1.26096 4.77555 2.20971 3.82679 3.37605 3.82679H3.68074V5.36422C3.68074 5.71238 3.96314 5.9948 4.31132 5.9948H8.87385C9.22201 5.9948 9.50444 5.71241 9.50444 5.36422V3.82679H18.4956Z" fill="#0033FF"/>
<path d="M16.3555 17.9161H14.4809V14.9577C14.4809 14.6096 14.1985 14.3271 13.8503 14.3271C13.5022 14.3271 13.2197 14.6095 13.2197 14.9577V18.5467C13.2197 18.8949 13.5021 19.1773 13.8503 19.1773H16.3554C16.7036 19.1773 16.986 18.8949 16.986 18.5467C16.986 18.1986 16.7036 17.9161 16.3554 17.9161H16.3555Z" fill="#0033FF"/>
<path d="M13.9998 11.4912C10.4509 11.4912 7.56372 14.3785 7.56372 17.9273C7.56372 21.4762 10.451 24.3634 13.9998 24.3634C17.5487 24.3634 20.436 21.4762 20.436 17.9273C20.436 14.3785 17.5487 11.4912 13.9998 11.4912ZM13.9998 23.1026C11.1464 23.1026 8.82477 20.781 8.82477 17.9276C8.82477 15.0741 11.1461 12.7525 13.9998 12.7525C16.8533 12.7525 19.1749 15.0739 19.1749 17.9276C19.1749 20.781 16.8533 23.1026 13.9998 23.1026Z" fill="#0033FF"/>
</svg>
