<svg width="12" height="26" viewBox="0 0 12 26" fill="none" xmlns="http://www.w3.org/2000/svg">
<path fill-rule="evenodd" clip-rule="evenodd" d="M2.60526 13.1193V25.682C2.60526 25.841 2.76316 26 2.92105 26H7.57895C7.73684 26 7.89474 25.841 7.89474 25.682V12.8807H11.2895C11.4474 12.8807 11.6053 12.7217 11.6053 12.5627L11.9211 8.74618C11.9211 8.58716 11.7632 8.42813 11.6053 8.42813H7.89474V5.64526C7.89474 5.00917 8.44737 4.4526 9.07895 4.4526H11.6842C11.8421 4.4526 12 4.29358 12 4.13456V0.318043C12 0.159021 11.8421 0 11.6842 0H7.26316C4.73684 0 2.60526 2.06728 2.60526 4.69113V8.42813H0.315789C0.157895 8.42813 0 8.50764 0 8.74618V12.5627C0 12.7217 0.157895 12.8807 0.315789 12.8807H2.60526V13.1193Z" fill="#657C97"/>
</svg>
