<svg width="67" height="67" viewBox="0 0 67 67" fill="none" xmlns="http://www.w3.org/2000/svg">
<path fill-rule="evenodd" clip-rule="evenodd" d="M33.5 37.6875C40.4381 37.6875 46.0625 32.0631 46.0625 25.125C46.0625 18.1869 40.4381 12.5625 33.5 12.5625C26.5619 12.5625 20.9375 18.1869 20.9375 25.125C20.9375 32.0631 26.5619 37.6875 33.5 37.6875ZM33.5 33.5C38.1254 33.5 41.875 29.7504 41.875 25.125C41.875 20.4996 38.1254 16.75 33.5 16.75C28.8746 16.75 25.125 20.4996 25.125 25.125C25.125 29.7504 28.8746 33.5 33.5 33.5Z" fill="#353542"/>
<path fill-rule="evenodd" clip-rule="evenodd" d="M67 33.5C67 52.0015 52.0015 67 33.5 67C14.9985 67 0 52.0015 0 33.5C0 14.9985 14.9985 0 33.5 0C52.0015 0 67 14.9985 67 33.5ZM49.5566 58.0276C44.9445 61.0529 39.4278 62.8125 33.5 62.8125C27.5722 62.8125 22.0554 61.0529 17.4434 58.0276C19.5023 51.1083 25.9119 46.0625 33.5 46.0625C41.0881 46.0625 47.4977 51.1083 49.5566 58.0276ZM53.0612 55.3311C59.0467 49.9643 62.8125 42.1719 62.8125 33.5C62.8125 17.3112 49.6888 4.1875 33.5 4.1875C17.3112 4.1875 4.1875 17.3112 4.1875 33.5C4.1875 42.1719 7.95324 49.9643 13.9387 55.3311C16.95 47.4624 24.5725 41.875 33.5 41.875C42.4275 41.875 50.05 47.4624 53.0612 55.3311Z" fill="#353542"/>
</svg>
