<svg width="27" height="27" viewBox="0 0 27 27" fill="none" xmlns="http://www.w3.org/2000/svg">
<path d="M18.1466 0H7.85337C3.50733 0 0 3.50733 0 7.85337V18.2229C0 22.5689 3.50733 26.0763 7.85337 26.0763H18.2229C22.5689 26.0763 26.0763 22.5689 26.0763 18.2229V7.85337C26 3.50733 22.4927 0 18.1466 0ZM23.5601 18.1466C23.5601 21.1202 21.1202 23.5601 18.1466 23.5601H7.85337C4.87977 23.5601 2.43988 21.1202 2.43988 18.1466V7.85337C2.43988 4.87977 4.87977 2.43988 7.85337 2.43988H18.2229C21.1965 2.43988 23.6364 4.87977 23.6364 7.85337V18.1466H23.5601Z" fill="#657C97"/>
<path d="M19.8238 4.80371C18.985 4.80371 18.2988 5.48993 18.2988 6.32864C18.2988 7.16735 18.985 7.85356 19.8238 7.85356C20.6625 7.85356 21.3487 7.16735 21.3487 6.32864C21.3487 5.48993 20.7387 4.80371 19.8238 4.80371Z" fill="#657C97"/>
<path d="M13.038 6.78613C9.53066 6.78613 6.6333 9.68349 6.6333 13.1908C6.6333 16.6982 9.53066 19.5955 13.038 19.5955C16.5453 19.5955 19.4427 16.6982 19.4427 13.1908C19.5189 9.60725 16.6216 6.78613 13.038 6.78613ZM13.038 17.3081C10.7506 17.3081 8.92069 15.4782 8.92069 13.1908C8.92069 10.9034 10.7506 9.07352 13.038 9.07352C15.3254 9.07352 17.1553 10.9034 17.1553 13.1908C17.1553 15.4782 15.3254 17.3081 13.038 17.3081Z" fill="#657C97"/>
</svg>
