<svg width="25" height="17" viewBox="0 0 25 17" fill="none" xmlns="http://www.w3.org/2000/svg">
<path d="M24.9999 7.7489V16.5634C24.9999 16.8253 24.8263 16.9998 24.5659 16.9998H19.9652C19.7048 16.9998 19.5312 16.8253 19.5312 16.5634V8.27254C19.5312 6.09072 18.7499 4.60708 16.8402 4.60708C15.3645 4.60708 14.4965 5.56708 14.0624 6.61436C13.8888 6.96345 13.8888 7.39981 13.8888 7.92345V16.5634C13.8888 16.8253 13.7152 16.9998 13.4548 16.9998H8.85411C8.5937 16.9998 8.42008 16.8253 8.42008 16.5634C8.42008 14.3816 8.50689 3.73436 8.42008 1.20345C8.6805 1.0289 8.85411 0.854357 9.02772 0.854357H13.5416C13.802 0.854357 13.9756 1.0289 13.9756 1.29072V3.21072C13.9756 3.21072 13.9756 3.21072 13.9756 3.29799V3.21072C14.6701 2.07617 15.9722 0.505266 18.8368 0.505266C22.309 0.417994 24.9999 2.77436 24.9999 7.7489ZM0.781196 16.9998H5.38189C5.64231 16.9998 5.81592 16.8253 5.81592 16.5634V1.20345C5.72911 1.0289 5.5555 0.854357 5.29508 0.854357H0.781196C0.520779 0.854357 0.347168 1.0289 0.347168 1.20345V16.5634C0.347168 16.8253 0.520779 16.9998 0.781196 16.9998Z" fill="#657C97"/>
</svg>
