<svg width="148" height="33" viewBox="0 0 148 33" fill="none" xmlns="http://www.w3.org/2000/svg">
<path d="M31.9588 25.3951L29.3958 20.1639C29.2823 19.9335 29.1009 19.7491 28.8968 19.6108C27.7173 18.8965 26.3337 20.1639 26.9461 21.4083L29.5092 26.6395C29.6906 26.9851 29.7587 27.3769 29.7587 27.7687C29.7813 29.0822 28.6246 30.2344 27.3317 30.2114H27.309C26.4017 30.2114 25.5398 29.6583 25.1542 28.8518C25.1089 28.7826 24.2923 27.1004 24.0201 26.6625C20.459 20.7631 12.044 20.7631 8.46027 26.6625C8.18809 27.1004 7.37154 28.7826 7.32617 28.8518C6.94058 29.6814 6.07866 30.2114 5.17138 30.2114H5.1487C3.35682 30.2344 2.17736 28.2756 2.97123 26.6395L14.0854 4.14785C14.9927 2.32732 17.5331 2.32732 18.4177 4.14785L20.5271 8.43416C20.7539 8.89506 21.2529 9.21768 21.7519 9.19464C22.7499 9.21768 23.4304 8.08849 22.9768 7.16671L20.8673 2.90344C18.962 -0.945026 13.541 -0.945026 11.6358 2.90344L0.544256 25.3951C-1.17958 28.8057 1.38349 33.0459 5.17138 32.9998C7.09935 33.0229 8.93659 31.8476 9.79851 30.0962C10.1841 29.3127 10.7058 28.3217 10.8192 28.1143C13.2915 23.9893 19.2342 23.9893 21.7066 28.1143C21.8427 28.3217 22.3417 29.3127 22.7272 30.0962C23.5665 31.8476 25.4264 32.9998 27.3544 32.9998C31.1196 33.0459 33.6827 28.8287 31.9588 25.3951Z" fill="#0033FF"/>
<path d="M27.309 14.3108C27.309 15.6474 26.2429 16.7305 24.9273 16.7305C21.7745 16.5922 21.7745 12.0294 24.9273 11.8911C26.2429 11.8911 27.309 12.9742 27.309 14.3108Z" fill="#FF5C40"/>
<path d="M50.059 16.3846C50.0364 16.7994 49.9683 17.1911 49.8322 17.5138C49.7415 17.7673 49.5827 18.0668 49.3332 18.3664C49.0837 18.666 48.7662 18.9195 48.3579 19.1269C47.9496 19.3343 47.4506 19.4265 46.8836 19.4265C46.4753 19.4265 46.135 19.3573 45.8855 19.2421C45.6134 19.1039 45.4092 18.9425 45.2731 18.7121C45.137 18.5047 45.069 18.2512 45.069 17.9516C45.069 17.6981 45.1144 17.4907 45.2278 17.3064C45.3412 17.122 45.5 16.9607 45.7041 16.8224C45.9082 16.6842 46.1577 16.5459 46.4526 16.4537C46.7475 16.3615 47.1104 16.2694 47.496 16.1772C47.8816 16.085 48.3579 16.0159 48.9023 15.9237C49.2425 15.8545 49.6508 15.8085 50.0817 15.7163C50.0817 15.9006 50.0817 16.1311 50.059 16.3846ZM52.1685 11.4069C51.8055 10.6464 51.2158 10.0934 50.4446 9.74771C49.6734 9.40204 48.7888 9.24072 47.7682 9.24072C46.4299 9.24072 45.3639 9.5403 44.57 10.1395C43.7761 10.7386 43.2318 11.5221 42.9596 12.49L45.2731 13.2275C45.4546 12.6283 45.7948 12.2135 46.2711 11.983C46.7475 11.7296 47.2465 11.6143 47.7682 11.6143C48.6301 11.6143 49.2198 11.7987 49.5827 12.1904C49.8776 12.5131 50.059 12.974 50.1044 13.5731C49.6508 13.6423 49.1971 13.7114 48.7662 13.7805C48.0403 13.8958 47.3826 13.9879 46.7701 14.1262C46.1577 14.2414 45.6134 14.3797 45.1597 14.541C44.5473 14.7484 44.071 15.0249 43.6854 15.3476C43.2998 15.6702 43.0276 16.062 42.8462 16.4998C42.6647 16.9377 42.574 17.4446 42.574 17.9977C42.574 18.643 42.7101 19.2191 43.0049 19.7491C43.2998 20.2791 43.7308 20.6939 44.2978 21.0166C44.8649 21.3392 45.568 21.5005 46.3846 21.5005C47.4052 21.5005 48.2672 21.3161 48.9476 20.9244C49.4693 20.6248 49.9456 20.187 50.3766 19.6339V21.2009H52.5994V14.0571C52.5994 13.5501 52.5767 13.0892 52.5314 12.6744C52.5087 12.2365 52.3726 11.8217 52.1685 11.4069Z" fill="#0033FF"/>
<path d="M68.8398 17.3524C68.6357 17.9285 68.3408 18.3663 67.9326 18.6889C67.5243 19.0116 66.9572 19.1729 66.2768 19.1729C65.619 19.1729 65.0746 19.0116 64.6437 18.6659C64.2127 18.3202 63.8952 17.8824 63.691 17.3063C63.4869 16.7301 63.3735 16.0849 63.3735 15.3705C63.3735 14.6792 63.4869 14.0339 63.691 13.4578C63.8952 12.8817 64.2354 12.4208 64.6663 12.0751C65.12 11.7295 65.6644 11.5681 66.3448 11.5681C67.0026 11.5681 67.5243 11.7295 67.9326 12.0521C68.3408 12.3747 68.6357 12.8126 68.8398 13.3887C69.044 13.9648 69.1347 14.61 69.1347 15.3705C69.1347 16.131 69.044 16.7762 68.8398 17.3524ZM69.1347 10.4159C68.9986 10.3007 68.8625 10.1624 68.7037 10.0702C67.9779 9.54021 67.048 9.26367 65.9819 9.26367C64.9158 9.26367 63.9632 9.54021 63.1693 10.0702C62.3755 10.6003 61.7631 11.3377 61.3321 12.2364C60.9011 13.1582 60.6743 14.1952 60.6743 15.3705C60.6743 16.5227 60.8785 17.5598 61.3094 18.4815C61.7404 19.4033 62.3528 20.1408 63.124 20.6708C63.8952 21.2008 64.8251 21.4774 65.8685 21.4774C66.9799 21.4774 67.9099 21.2008 68.6584 20.6708C68.7037 20.6477 68.7491 20.6017 68.7945 20.5556V21.6617C68.8171 22.2148 68.7037 22.6757 68.4769 23.0444C68.2501 23.4131 67.9326 23.6896 67.5016 23.874C67.0933 24.0584 66.617 24.1505 66.0953 24.1505C65.6417 24.1505 65.2107 24.0584 64.8251 23.851C64.4168 23.6436 64.122 23.344 63.8952 22.9061L61.5589 24.0814C61.8538 24.6114 62.2394 25.0723 62.693 25.441C63.1467 25.8097 63.691 26.1093 64.2581 26.2937C64.8478 26.5011 65.4375 26.5933 66.0726 26.5933C66.9345 26.5933 67.7057 26.478 68.4316 26.2476C69.1347 26.0172 69.7244 25.6484 70.2008 25.1645C70.6771 24.6806 70.9946 24.0584 71.1761 23.3209C71.2214 23.0674 71.2668 22.7909 71.2895 22.5374C71.3122 22.2609 71.3349 21.9843 71.3349 21.6848V9.5863H69.112V10.4159H69.1347Z" fill="#0033FF"/>
<path d="M75.3267 14.1492C75.4401 13.4809 75.6669 12.9279 75.9845 12.5131C76.4835 11.8678 77.2547 11.5221 78.2981 11.5221C79.228 11.5221 79.8858 11.8217 80.3167 12.3978C80.6116 12.8126 80.8157 13.3888 80.9065 14.1492H75.3267ZM81.2013 10.0934C80.3848 9.5403 79.3641 9.24072 78.1846 9.24072C77.0732 9.24072 76.0752 9.49421 75.236 10.0242C74.3741 10.5312 73.7163 11.2687 73.24 12.1904C72.7637 13.1122 72.5142 14.2184 72.5142 15.4858C72.5142 16.6611 72.7637 17.6981 73.24 18.5969C73.739 19.4956 74.4194 20.21 75.2814 20.717C76.1433 21.224 77.164 21.4775 78.3207 21.4775C79.4095 21.4775 80.4302 21.1779 81.3374 20.6018C82.2447 20.0256 82.9252 19.2191 83.3561 18.159L80.8384 17.3755C80.5889 17.9055 80.2487 18.3203 79.7951 18.5969C79.3414 18.8734 78.7971 19.0117 78.1846 19.0117C77.2093 19.0117 76.4835 18.689 75.9618 18.0438C75.5535 17.5368 75.3267 16.8685 75.236 16.0389H80.9745H82.2447H83.4922C83.5829 14.6562 83.4469 13.4349 83.0386 12.4209C82.653 11.453 82.0406 10.6695 81.2013 10.0934Z" fill="#0033FF"/>
<path d="M94.9467 12.1903C94.788 11.6834 94.5611 11.2225 94.2209 10.7846C93.9034 10.3468 93.4497 9.97806 92.9054 9.70152C92.361 9.42498 91.6578 9.26367 90.8186 9.26367C89.7526 9.26367 88.8453 9.49412 88.1195 9.97806C87.7339 10.2315 87.3936 10.5311 87.0988 10.8768V9.5863H84.8306V21.1778H87.4163V15.2092C87.4163 14.4948 87.4844 13.9187 87.6431 13.4578C87.8019 12.9969 88.006 12.6512 88.2555 12.3747C88.505 12.0982 88.7999 11.9369 89.1175 11.8216C89.435 11.7064 89.7526 11.6603 90.0701 11.6603C90.6825 11.6603 91.1588 11.7986 91.5218 12.0521C91.8847 12.3056 92.1342 12.6512 92.3156 13.066C92.4971 13.4808 92.6105 13.8957 92.6559 14.3565C92.7012 14.7944 92.7239 15.2092 92.7239 15.5779V21.1547H95.3096V14.7022C95.3096 14.4257 95.287 14.057 95.2416 13.6191C95.1962 13.1582 95.1055 12.6973 94.9467 12.1903Z" fill="#0033FF"/>
<path d="M108.442 6.36035H105.902V8.73396H108.442V6.36035Z" fill="#0033FF"/>
<path d="M108.442 9.58643H105.902V21.1779H108.442V9.58643Z" fill="#0033FF"/>
<path d="M120.509 12.1903C120.35 11.6834 120.124 11.2225 119.783 10.7846C119.466 10.3468 119.012 9.97806 118.468 9.70152C117.923 9.42498 117.22 9.26367 116.381 9.26367C115.315 9.26367 114.408 9.49412 113.682 9.97806C113.296 10.2315 112.956 10.5311 112.661 10.8768V9.5863H110.393V21.1778H112.979V15.2092C112.979 14.4948 113.047 13.9187 113.206 13.4578C113.364 12.9969 113.569 12.6512 113.818 12.3747C114.068 12.1212 114.362 11.9369 114.68 11.8216C114.998 11.7064 115.315 11.6603 115.633 11.6603C116.245 11.6603 116.721 11.7986 117.084 12.0521C117.447 12.3056 117.697 12.6512 117.878 13.066C118.06 13.4808 118.173 13.8957 118.218 14.3565C118.264 14.7944 118.286 15.2092 118.286 15.5779V21.1547H120.872V14.7022C120.872 14.4257 120.849 14.057 120.804 13.6191C120.759 13.1582 120.668 12.6973 120.509 12.1903Z" fill="#0033FF"/>
<path d="M129.65 16.3846C129.627 16.7994 129.559 17.1911 129.423 17.5138C129.333 17.7673 129.174 18.0668 128.924 18.3664C128.675 18.666 128.357 18.9195 127.949 19.1269C127.541 19.3343 127.042 19.4265 126.475 19.4265C126.066 19.4265 125.726 19.3573 125.477 19.2421C125.204 19.1039 125 18.9425 124.864 18.7121C124.728 18.5047 124.66 18.2512 124.66 17.9516C124.66 17.6981 124.705 17.4907 124.819 17.3064C124.932 17.122 125.091 16.9607 125.295 16.8224C125.499 16.6842 125.749 16.5459 126.044 16.4537C126.339 16.3615 126.701 16.2694 127.087 16.1772C127.473 16.085 127.949 16.0159 128.493 15.9237C128.834 15.8545 129.242 15.8085 129.673 15.7163C129.673 15.9006 129.65 16.1311 129.65 16.3846ZM131.759 11.4069C131.397 10.6464 130.807 10.0934 130.036 9.74771C129.264 9.40204 128.38 9.24072 127.359 9.24072C126.021 9.24072 124.955 9.5403 124.161 10.1395C123.367 10.7386 122.823 11.5221 122.551 12.49L124.864 13.2275C125.046 12.6283 125.386 12.2135 125.862 11.983C126.339 11.7296 126.838 11.6143 127.359 11.6143C128.221 11.6143 128.811 11.7987 129.174 12.1904C129.469 12.5131 129.65 12.974 129.695 13.5731C129.242 13.6423 128.788 13.7114 128.357 13.7805C127.631 13.8958 126.974 13.9879 126.361 14.1262C125.749 14.2414 125.204 14.3797 124.751 14.541C124.138 14.7484 123.662 15.0249 123.276 15.3476C122.891 15.6702 122.619 16.062 122.437 16.4998C122.256 16.9377 122.165 17.4446 122.165 17.9977C122.165 18.643 122.301 19.2191 122.596 19.7491C122.891 20.2791 123.322 20.6939 123.889 21.0166C124.456 21.3392 125.159 21.5005 125.976 21.5005C126.996 21.5005 127.858 21.3161 128.539 20.9244C129.06 20.6248 129.537 20.187 129.968 19.6339V21.2009H132.19V14.0571C132.19 13.5501 132.168 13.0892 132.122 12.6744C132.1 12.2365 131.964 11.8217 131.759 11.4069Z" fill="#0033FF"/>
<path d="M59.404 9.54015C59.0411 9.56319 58.7008 9.63233 58.3606 9.74755C58.0204 9.86278 57.7028 10.001 57.4306 10.2084C57.0904 10.4158 56.8182 10.6693 56.5914 10.992C56.478 11.1302 56.3873 11.2915 56.2965 11.4529V9.60928H54.051V21.2008H56.6141V15.2783C56.6141 14.8404 56.6595 14.4256 56.7729 14.0339C56.8863 13.6421 57.045 13.3195 57.2719 13.0199C57.4987 12.7203 57.7709 12.4668 58.1338 12.2825C58.474 12.0751 58.8823 11.9368 59.3132 11.9138C59.7215 11.8907 60.1071 11.9138 60.4247 12.0059V9.58624C60.0617 9.5171 59.7442 9.51711 59.404 9.54015Z" fill="#0033FF"/>
<path d="M100.776 6.36035H98.2356V9.58661H96.3303V11.6145H98.2356V16.4309C98.2356 17.0992 98.2356 17.6753 98.2583 18.2053C98.281 18.7354 98.4171 19.2423 98.6666 19.7493C98.9614 20.3024 99.3924 20.6942 99.9594 20.9476C100.526 21.2011 101.184 21.3394 101.887 21.3625C102.613 21.3855 103.339 21.3164 104.11 21.1781V19.0119C103.407 19.1271 102.772 19.1502 102.205 19.1041C101.638 19.058 101.252 18.8045 100.98 18.3897C100.844 18.1592 100.776 17.8827 100.753 17.537C100.753 17.1914 100.731 16.7766 100.731 16.3157V11.6145H104.088V9.58661H100.731V6.36035H100.776Z" fill="#0033FF"/>
<path d="M139.245 6.36035H136.704V8.73396H139.245V6.36035Z" fill="#FF5C40"/>
<path d="M148 11.6145V9.58661H144.643V6.36035H142.103V9.58661H139.267H136.727V21.1781H139.267V11.6145H142.125V16.4309C142.125 17.0992 142.125 17.6753 142.148 18.2053C142.171 18.7354 142.307 19.2423 142.556 19.7493C142.851 20.3024 143.282 20.6942 143.849 20.9476C144.416 21.2011 145.074 21.3394 145.777 21.3625C146.503 21.3855 147.229 21.3164 148 21.1781V19.0119C147.297 19.1271 146.662 19.1502 146.095 19.1041C145.528 19.058 145.142 18.8045 144.87 18.3897C144.734 18.1592 144.666 17.8827 144.643 17.537C144.643 17.1914 144.62 16.7766 144.62 16.3157V11.6145H148Z" fill="#FF5C40"/>
</svg>
