<svg width="34" height="26" viewBox="0 0 34 26" fill="none" xmlns="http://www.w3.org/2000/svg">
<path d="M33.8924 12.2646L26.3467 0.262282C26.2873 0.143447 26.109 0.0246116 25.9902 0.0246116C25.8119 -0.034806 25.6931 0.0246116 25.5148 0.0840292L21.9498 2.3419C21.6527 2.52015 21.5933 2.87666 21.7715 3.17374L21.9498 3.47083C20.5238 3.23316 18.3253 3.11433 16.8993 3.76792H16.8399C15.295 3.23316 12.6806 3.53025 11.1358 3.82734L11.6111 3.05491C11.7894 2.75782 11.6705 2.40132 11.3734 2.22306L7.8678 0.143447C7.74896 0.0840292 7.57071 0.0246116 7.39246 0.0840292C7.2142 0.143447 7.09537 0.202864 7.03595 0.381117L0.0837515 12.6211C-0.0945013 12.9182 0.0243339 13.2747 0.321422 13.453L3.76764 15.4138C3.88648 15.4732 3.9459 15.4732 4.06473 15.4732C4.24298 15.4732 4.48065 15.3544 4.59949 15.1761L5.3125 13.9283C5.49075 14.3443 5.72842 14.7008 5.96609 14.9384C5.55017 15.4138 5.3125 16.0079 5.3125 16.6021C5.3125 17.2557 5.55017 17.9093 6.02551 18.3847C6.50085 18.86 7.15445 19.0977 7.80804 19.0977H8.04571V19.3353C8.04571 19.9889 8.28338 20.6425 8.75872 21.1179C9.23406 21.5932 9.82824 21.8309 10.5413 21.8309H10.7789V22.0685C10.7789 22.7221 11.0166 23.3757 11.4919 23.8511C11.9673 24.3264 12.6209 24.5641 13.2745 24.5641C13.9281 24.5641 14.5222 24.3264 15.057 23.8511L15.2947 23.6134L16.7207 24.6829C17.196 25.0394 17.6714 25.2177 18.2061 25.2177C18.9786 25.2177 19.6916 24.9206 20.1075 24.3264C20.4046 23.9105 20.5828 23.4946 20.5828 23.0192H20.7017C21.4147 23.0192 22.1277 22.7221 22.603 22.128C22.9001 21.712 23.0784 21.2367 23.0784 20.8208H23.2566C23.9696 20.8208 24.6826 20.5237 25.158 19.9889C25.4551 19.6324 25.6333 19.2165 25.6333 18.6817C26.2275 18.6223 26.8217 18.3252 27.1782 17.7905C27.7129 17.0775 27.7724 16.1862 27.4159 15.4732L29.0201 14.5225L29.4955 15.2949C29.5549 15.4138 29.7331 15.5326 29.852 15.5326H29.9708C30.0896 15.5326 30.2085 15.4732 30.2679 15.4138L33.833 13.0965C34.0112 12.8588 34.0706 12.5023 33.8924 12.2646ZM3.82706 14.0472L1.39094 12.6806L7.74862 1.39122L10.2442 2.87666L3.82706 14.0472ZM6.79794 17.5528C6.56027 17.3151 6.44144 16.9586 6.44144 16.6615C6.44144 16.305 6.56027 16.0079 6.79794 15.7703L7.15445 15.4138C7.62979 14.9384 8.52105 14.9384 8.99639 15.4138C9.23406 15.6514 9.3529 16.0079 9.3529 16.305C9.3529 16.6615 9.23406 16.9586 8.99639 17.1963L8.63989 17.5528C8.16455 18.0281 7.3327 18.0281 6.79794 17.5528ZM9.47174 20.2266C9.23406 19.9889 9.11523 19.6324 9.11523 19.3353C9.11523 18.9788 9.23406 18.6817 9.47174 18.4441L9.82824 18.0876C10.0659 17.8499 10.4224 17.7311 10.7195 17.7311C11.0166 17.7311 11.3731 17.8499 11.6108 18.0876C12.1455 18.6223 12.1455 19.3948 11.6108 19.9295L11.2543 20.286C10.8383 20.7019 10.0065 20.7019 9.47174 20.2266ZM13.9875 22.9004C13.4527 23.3757 12.6803 23.3757 12.1455 22.9004C11.9079 22.6627 11.789 22.3062 11.789 22.0091C11.789 21.6526 11.9079 21.3555 12.1455 21.1179L12.502 20.7614C12.7397 20.5237 13.0962 20.4049 13.3933 20.4049C13.6904 20.4049 14.0469 20.5237 14.2846 20.7614C14.5222 20.999 14.6411 21.3555 14.6411 21.6526C14.6411 22.0091 14.5222 22.3062 14.2846 22.5439L13.9875 22.9004ZM26.0489 16.9586C25.8112 17.2557 25.4547 17.434 25.0388 17.3746C24.9794 17.3151 24.8606 17.3151 24.7417 17.3151L24.3852 17.1369L23.1969 16.1862C22.9592 16.0079 22.5433 16.0079 22.365 16.305C22.1868 16.5427 22.1868 16.9586 22.4839 17.1369L23.6722 18.0876C23.8505 18.2064 24.0287 18.3252 24.2664 18.4441C24.2664 18.6817 24.207 18.9194 24.0881 19.0977C23.6722 19.573 22.8998 19.6918 22.4244 19.3353L22.365 19.2759C22.365 19.2759 22.3056 19.2759 22.3056 19.2165L21.1172 18.2658C20.8796 18.0876 20.4637 18.0876 20.2854 18.3847C20.1071 18.6223 20.1071 19.0382 20.4042 19.2165L21.5926 20.1672L21.652 20.2266C21.8303 20.5237 21.8303 20.999 21.5926 21.2961C21.2361 21.712 20.5231 21.8903 20.0477 21.5932C19.9883 21.5338 19.9289 21.5338 19.8695 21.4744L19.8101 21.415L18.6217 20.4643C18.384 20.286 17.9681 20.286 17.7899 20.5831C17.6116 20.8208 17.6116 21.2367 17.9087 21.415L19.097 22.3656C19.1565 22.3656 19.1565 22.4251 19.2159 22.4845C19.3347 22.841 19.3347 23.1975 19.0376 23.554C18.8594 23.8511 18.5029 23.9699 18.0869 23.9699C17.7899 23.9699 17.5522 23.9105 17.3145 23.6728L16.1262 22.7816L15.8291 22.6033C15.9479 22.3062 16.0073 22.0091 16.0073 21.6526C16.0073 20.999 15.7697 20.3454 15.2943 19.8701C14.7596 19.3353 14.0466 19.0977 13.3335 19.1571C13.393 18.4441 13.1553 17.7311 12.6205 17.1963C12.0858 16.6615 11.3728 16.4239 10.6597 16.4833V16.2456C10.6597 15.592 10.4221 14.9384 9.94674 14.4631C9.47139 13.9878 8.87722 13.7501 8.16421 13.7501C7.68887 13.7501 7.21352 13.8689 6.85702 14.1066C6.61935 13.8095 6.26284 13.2747 6.14401 12.5023L10.4221 5.07477C11.6104 4.8371 14.106 4.42118 15.7697 4.65885L11.6698 8.46157C10.9568 9.17458 10.8974 10.3035 11.6104 11.0759C11.9669 11.4919 12.5017 11.7295 13.0365 11.7295C13.393 11.7295 13.7495 11.6107 14.0466 11.4325L17.4334 9.17458C17.9087 8.81808 18.5029 8.69924 19.097 8.81808L19.6912 8.8775L25.0982 14.5816L26.0489 15.5917C26.346 15.8888 26.346 16.5424 26.0489 16.9583V16.9586ZM26.5242 14.4037L25.8707 13.6907L21.4738 8.99667L22.2462 9.05609C22.5433 9.11551 22.8404 8.87784 22.8998 8.52133C22.9592 8.22424 22.7215 7.92715 22.365 7.86774L20.1071 7.63007C19.9883 7.57065 19.9289 7.57065 19.8101 7.57065L19.2159 7.51123C18.384 7.3924 17.4334 7.57065 16.7203 8.10541L13.3335 10.3633C13.0365 10.5415 12.6799 10.4821 12.4423 10.2444C12.2046 9.94735 12.2046 9.53143 12.4423 9.29376L16.8986 5.13453C16.958 5.07511 17.0768 5.01569 17.1363 4.89686C17.2551 4.89686 17.3145 4.83744 17.3739 4.77802C18.6217 4.18384 21.1767 4.42151 22.7809 4.77802L28.1879 13.3939L26.5242 14.4037ZM30.0299 14.0472L29.614 13.453C29.614 13.3936 29.614 13.3342 29.5545 13.2747C29.4951 13.2153 29.4357 13.1559 29.4357 13.0965L23.1374 2.99549L25.6924 1.39122L32.5848 12.3838L30.0299 14.0472Z" fill="#0033FF"/>
</svg>
