<svg width="10" height="19" viewBox="0 0 10 19" fill="none" xmlns="http://www.w3.org/2000/svg">
<path d="M0 1.21379V17.7057C0 18.375 0.544494 18.9195 1.21379 18.9195H8.78621C9.45551 18.9195 10 18.375 10 17.7057L9.99984 1.21379C9.99984 0.544495 9.45534 9.01588e-07 8.78605 9.01588e-07H1.21362C0.544456 -0.000808648 3.79462e-06 0.543666 3.79462e-06 1.21379H0ZM9.13914 15.1161H0.860861V3.18212H9.13914V15.1161ZM8.78619 18.058H1.21376C1.01931 18.058 0.860811 17.9003 0.860811 17.706L0.86065 15.9777H9.13893V17.7058C9.13893 17.9003 8.98026 18.058 8.78598 18.058L8.78619 18.058ZM9.13914 1.21379V2.32105L0.860861 2.32121V1.21378C0.860861 1.01934 1.01953 0.860833 1.21381 0.860833H8.78624C8.98068 0.860833 9.13935 1.01853 9.13935 1.21378L9.13914 1.21379Z" fill="#0033FF"/>
<path d="M5.45612 16.6152H4.54217C4.30433 16.6152 4.11182 16.8077 4.11182 17.0456C4.11182 17.2834 4.30432 17.4759 4.54217 17.4759H5.45612C5.69396 17.4759 5.88647 17.2834 5.88647 17.0456C5.8876 16.8086 5.69413 16.6152 5.45612 16.6152Z" fill="#0033FF"/>
</svg>
