<svg width="265" height="183" viewBox="0 0 265 183" fill="none" xmlns="http://www.w3.org/2000/svg">
<g clip-path="url(#clip0_54_5381)">
<path d="M171.953 62.8047L165.511 49.8676C165.226 49.2977 164.77 48.8418 164.256 48.4998C161.292 46.7331 157.814 49.8676 159.353 52.9452L165.796 65.8822C166.252 66.7371 166.423 67.706 166.423 68.6748C166.48 71.9234 163.572 74.7729 160.322 74.7159H160.265C157.985 74.7159 155.818 73.3481 154.849 71.3534C154.735 71.1825 152.683 67.0221 151.998 65.9392C143.047 51.3494 121.838 51.3494 112.887 65.9392C112.203 67.0221 110.15 71.1825 110.036 71.3534C109.067 73.4051 106.901 74.7159 104.62 74.7159H104.563C100.059 74.7159 97.0942 69.9286 99.0897 65.8822L127.083 10.2585C129.364 5.75612 135.75 5.75612 137.973 10.2585L143.275 20.8589C143.845 21.9987 145.1 22.7966 146.354 22.7396C148.863 22.7966 150.573 20.004 149.433 17.7243L144.131 7.12391C139.341 -2.39368 125.715 -2.39368 120.926 7.12391L93.0462 62.8047C88.7132 71.2394 95.1557 81.7259 104.677 81.6119C109.523 81.6689 114.141 78.7623 116.308 74.431C117.277 72.4933 118.588 70.0426 118.873 69.5297C125.088 59.3282 140.026 59.3282 146.24 69.5297C146.582 70.0426 147.836 72.4933 148.806 74.431C150.915 78.7623 155.59 81.6119 160.436 81.6119C169.901 81.7259 176.343 71.2964 171.953 62.8047Z" fill="white"/>
<path d="M160.323 35.3916C160.323 38.6971 157.643 41.3758 154.336 41.3758C146.411 41.0338 146.411 29.7495 154.336 29.4645C157.643 29.4075 160.323 32.0861 160.323 35.3916Z" fill="#FF5C40"/>
<path d="M206.96 165.618H204.395V168.125H206.96V165.618Z" fill="white"/>
<path d="M41.5061 178.441L38.7124 169.322H36.4889L33.6952 178.441L30.9016 169.322H28.3359L32.3839 182.658H34.4934L37.5722 173.027L40.7079 182.658H42.7604L46.8084 169.322H44.2998L41.5061 178.441Z" fill="white"/>
<path d="M50.172 174.679C50.286 173.767 50.6281 173.026 51.0272 172.456C51.6543 171.658 52.6236 171.26 53.9349 171.26C55.0752 171.26 55.9874 171.601 56.5575 172.342C57.0136 172.912 57.2417 173.71 57.3557 174.679H50.172ZM57.2987 169.892C56.3295 169.265 55.1892 168.923 53.8209 168.923C52.5095 168.923 51.3693 169.208 50.4 169.778C49.4308 170.348 48.6326 171.203 48.1195 172.228C47.5493 173.311 47.3213 174.565 47.3213 175.99C47.3213 177.358 47.6064 178.554 48.1765 179.58C48.7466 180.606 49.4878 181.404 50.5141 182.031C51.5403 182.601 52.6806 182.886 53.9919 182.886C55.3032 182.886 56.4435 182.544 57.5268 181.917C58.553 181.29 59.3512 180.321 59.8643 179.181L57.3557 178.383C57.0136 179.067 56.5575 179.58 55.9874 179.979C55.4172 180.321 54.6761 180.549 53.8779 180.549C52.6806 180.549 51.7113 180.15 51.0842 179.352C50.5711 178.668 50.229 177.814 50.172 176.674H57.5268H58.8381H60.0924C60.2064 175.078 59.9783 173.71 59.5222 172.57C58.9521 171.43 58.2679 170.519 57.2987 169.892Z" fill="white"/>
<path d="M75.9423 176.959C75.9423 177.472 75.8282 177.871 75.7142 178.269C75.6002 178.725 75.4291 179.124 75.0871 179.523C74.745 179.922 74.3459 180.264 73.8328 180.492C73.3196 180.777 72.6925 180.891 71.9513 180.891C71.3812 180.891 70.925 180.834 70.583 180.606C70.2409 180.435 69.9558 180.207 69.7848 179.922C69.6137 179.637 69.4997 179.295 69.4997 178.953C69.4997 178.611 69.5567 178.326 69.7278 178.041C69.8988 177.757 70.1269 177.586 70.3549 177.415C70.64 177.244 70.925 177.073 71.3241 176.959C71.7232 176.845 72.2364 176.731 72.7495 176.617C73.2626 176.503 73.8898 176.446 74.5739 176.332C74.973 176.275 75.4862 176.218 75.9423 176.104C75.9993 176.389 75.9993 176.674 75.9423 176.959ZM78.1088 171.487C77.7097 170.633 77.0255 169.949 76.1703 169.55C75.3151 169.151 74.2319 168.923 73.0346 168.923C71.4952 168.923 70.2979 169.265 69.3287 169.949C68.4164 170.633 67.7893 171.544 67.4472 172.684L69.8418 173.425C70.0698 172.684 70.4689 172.171 71.0391 171.829C71.6092 171.487 72.2364 171.317 72.9775 171.317C74.0608 171.317 74.859 171.544 75.3151 172.057C75.7142 172.513 75.9423 173.14 75.9423 173.995C75.4291 174.052 74.916 174.109 74.4029 174.223C73.6047 174.337 72.8065 174.451 72.0653 174.565C71.3241 174.679 70.64 174.85 70.0698 175.021C69.3857 175.249 68.8155 175.534 68.3594 175.876C67.9033 176.218 67.5612 176.674 67.2762 177.187C67.0481 177.7 66.9341 178.269 66.9341 178.953C66.9341 179.694 67.1051 180.321 67.4472 180.948C67.7893 181.575 68.3024 182.031 68.9296 182.43C69.6137 182.772 70.4119 183 71.3812 183C72.6355 183 73.6617 182.772 74.5169 182.259C75.1441 181.86 75.7142 181.347 76.1703 180.72V182.658H78.4509V174.451C78.4509 173.881 78.4509 173.368 78.3939 172.912C78.4509 172.399 78.2798 171.943 78.1088 171.487Z" fill="white"/>
<path d="M87.1741 169.265C86.7179 169.322 86.3188 169.379 85.9198 169.493C85.5207 169.607 85.1216 169.835 84.7795 170.063C84.4374 170.291 84.1523 170.576 83.8673 170.918C83.7532 171.089 83.6392 171.26 83.5252 171.431V169.322H81.2446V182.601H83.8673V175.876C83.8673 175.363 83.9243 174.85 84.0383 174.394C84.1523 173.938 84.3234 173.482 84.5514 173.083C84.7795 172.685 85.1216 172.343 85.5207 172.115C85.9768 171.83 86.4329 171.659 87.003 171.602C87.5161 171.545 88.0293 171.602 88.4284 171.716V169.322C88.0293 169.265 87.6302 169.265 87.1741 169.265Z" fill="white"/>
<path d="M92.1345 174.679C92.2485 173.767 92.5906 173.026 92.9897 172.456C93.6169 171.658 94.5861 171.26 95.8974 171.26C97.0377 171.26 97.9499 171.601 98.52 172.342C98.9762 172.912 99.2042 173.71 99.3182 174.679H92.1345ZM99.3182 169.892C98.349 169.265 97.2087 168.923 95.8404 168.923C94.5291 168.923 93.3888 169.208 92.4196 169.778C91.4503 170.348 90.7092 171.203 90.139 172.228C89.5689 173.311 89.3408 174.565 89.3408 175.99C89.3408 177.358 89.6259 178.554 90.196 179.58C90.7662 180.606 91.5073 181.404 92.5336 182.031C93.5598 182.601 94.7001 182.886 96.0114 182.886C97.3227 182.886 98.463 182.544 99.5463 181.917C100.573 181.29 101.371 180.321 101.884 179.181L99.3752 178.383C99.0332 179.067 98.5771 179.58 98.0069 179.979C97.4368 180.321 96.6956 180.549 95.8974 180.549C94.7001 180.549 93.7309 180.15 93.1037 179.352C92.5906 178.668 92.2485 177.814 92.1915 176.674H99.5463H100.858H102.112C102.226 175.078 101.998 173.71 101.542 172.57C100.972 171.43 100.23 170.519 99.3182 169.892Z" fill="white"/>
<path d="M113.343 172.001C113.913 171.602 114.598 171.431 115.453 171.431C116.194 171.431 116.878 171.659 117.448 172.058C118.018 172.457 118.418 173.027 118.703 173.825L121.268 173.084C120.926 171.83 120.242 170.861 119.216 170.12C118.189 169.379 116.935 169.037 115.51 169.037C114.141 169.037 113.001 169.322 112.032 169.949C111.063 170.576 110.322 171.374 109.808 172.457C109.295 173.54 109.01 174.736 109.01 176.104C109.01 177.472 109.295 178.669 109.808 179.695C110.322 180.777 111.063 181.575 111.975 182.202C112.944 182.829 114.084 183.114 115.453 183.114C116.878 183.114 118.075 182.772 119.102 182.088C120.128 181.404 120.812 180.379 121.268 179.125L118.589 178.384C118.303 179.125 117.904 179.638 117.391 180.037C116.878 180.436 116.194 180.607 115.396 180.607C114.199 180.607 113.286 180.208 112.659 179.353C112.032 178.498 111.747 177.415 111.69 176.047C111.69 175.135 111.861 174.394 112.089 173.711C112.374 172.913 112.773 172.4 113.343 172.001Z" fill="white"/>
<path d="M131.474 179.296C130.847 180.15 129.877 180.606 128.623 180.606C127.369 180.606 126.457 180.207 125.829 179.353C125.202 178.498 124.86 177.415 124.86 175.99C124.86 175.078 124.974 174.28 125.259 173.596C125.544 172.913 125.943 172.4 126.514 172.001C127.084 171.602 127.768 171.431 128.623 171.431C129.877 171.431 130.847 171.83 131.474 172.685C132.101 173.539 132.443 174.622 132.443 175.99C132.443 177.301 132.101 178.441 131.474 179.296ZM132.101 169.892C131.132 169.265 129.991 168.98 128.623 168.98C127.312 168.98 126.172 169.265 125.202 169.835C124.233 170.405 123.492 171.26 122.922 172.286C122.352 173.368 122.124 174.565 122.124 175.933C122.124 177.301 122.409 178.555 122.922 179.581C123.435 180.663 124.233 181.461 125.202 182.088C126.172 182.715 127.312 183 128.68 183C129.991 183 131.132 182.715 132.101 182.088C133.07 181.461 133.811 180.663 134.381 179.638C134.895 178.555 135.18 177.358 135.18 175.99C135.18 174.622 134.895 173.425 134.381 172.343C133.811 171.26 133.07 170.462 132.101 169.892Z" fill="white"/>
<path d="M148.806 172.172C148.578 171.602 148.293 171.089 147.894 170.576C147.495 170.12 146.982 169.721 146.354 169.436C145.727 169.151 144.986 168.98 144.017 168.98C142.82 168.98 141.793 169.265 140.938 169.778C140.425 170.12 139.969 170.519 139.627 170.975V169.379H137.346V182.658H139.969V175.762C139.969 174.964 140.083 174.28 140.254 173.767C140.425 173.197 140.653 172.799 140.995 172.457C141.28 172.115 141.679 171.887 142.078 171.716C142.477 171.545 142.934 171.488 143.39 171.488C144.074 171.488 144.644 171.659 145.1 171.944C145.556 172.229 145.898 172.628 146.126 173.084C146.354 173.539 146.525 174.052 146.639 174.622C146.753 175.192 146.753 175.705 146.753 176.218V182.772H149.376V175.363C149.376 174.964 149.319 174.451 149.262 173.938C149.148 173.254 149.034 172.742 148.806 172.172Z" fill="white"/>
<path d="M163.458 172.172C163.23 171.602 162.945 171.089 162.546 170.576C162.147 170.12 161.634 169.721 161.007 169.436C160.38 169.151 159.638 168.98 158.669 168.98C157.472 168.98 156.446 169.265 155.59 169.778C155.077 170.12 154.621 170.519 154.279 170.975V169.379H151.999V182.658H154.621V175.762C154.621 174.964 154.735 174.28 154.906 173.767C155.077 173.197 155.305 172.799 155.647 172.457C155.932 172.115 156.332 171.887 156.731 171.716C157.13 171.545 157.586 171.488 158.042 171.488C158.726 171.488 159.296 171.659 159.752 171.944C160.209 172.229 160.551 172.628 160.779 173.084C161.007 173.539 161.178 174.052 161.292 174.622C161.406 175.192 161.406 175.705 161.406 176.218V182.772H164.028V175.363C164.028 174.964 163.971 174.451 163.914 173.938C163.8 173.254 163.686 172.742 163.458 172.172Z" fill="white"/>
<path d="M168.647 174.679C168.761 173.767 169.046 173.026 169.502 172.456C170.129 171.658 171.098 171.26 172.409 171.26C173.55 171.26 174.462 171.601 175.032 172.342C175.488 172.912 175.716 173.71 175.83 174.679H168.647ZM175.773 169.892C174.804 169.265 173.664 168.923 172.295 168.923C170.984 168.923 169.844 169.208 168.875 169.778C167.905 170.348 167.107 171.203 166.594 172.228C166.024 173.311 165.796 174.565 165.796 175.99C165.796 177.358 166.081 178.554 166.651 179.58C167.221 180.606 167.962 181.404 168.989 182.031C170.015 182.601 171.155 182.886 172.467 182.886C173.778 182.886 174.918 182.544 176.001 181.917C177.028 181.29 177.826 180.321 178.339 179.181L175.83 178.383C175.488 179.067 175.032 179.58 174.462 179.979C173.892 180.321 173.151 180.549 172.352 180.549C171.155 180.549 170.186 180.15 169.559 179.352C169.046 178.668 168.704 177.814 168.647 176.674H176.001H177.313H178.567C178.681 175.078 178.453 173.71 177.997 172.57C177.427 171.43 176.743 170.519 175.773 169.892Z" fill="white"/>
<path d="M184.382 172.001C184.953 171.602 185.637 171.431 186.492 171.431C187.233 171.431 187.917 171.659 188.487 172.058C189.058 172.457 189.457 173.027 189.742 173.825L192.307 173.084C191.965 171.83 191.281 170.861 190.255 170.12C189.229 169.379 187.974 169.037 186.549 169.037C185.181 169.037 184.04 169.322 183.071 169.949C182.102 170.576 181.361 171.374 180.848 172.457C180.334 173.54 180.049 174.736 180.049 176.104C180.049 177.472 180.334 178.669 180.848 179.695C181.361 180.777 182.102 181.575 183.014 182.202C183.983 182.829 185.124 183.114 186.492 183.114C187.917 183.114 189.115 182.772 190.141 182.088C191.167 181.404 191.851 180.379 192.307 179.125L189.685 178.498C189.4 179.239 189 179.752 188.487 180.151C187.974 180.55 187.29 180.721 186.492 180.721C185.295 180.721 184.382 180.322 183.755 179.467C183.128 178.612 182.843 177.529 182.786 176.161C182.786 175.249 182.957 174.508 183.185 173.825C183.413 172.913 183.812 172.4 184.382 172.001Z" fill="white"/>
<path d="M197.895 165.618H195.329V169.322H192.764V171.374H195.329V177.358C195.329 178.099 195.329 178.726 195.386 179.296C195.443 179.866 195.557 180.436 195.842 180.949C196.184 181.575 196.641 182.031 197.268 182.316C197.895 182.601 198.636 182.772 199.434 182.772C200.232 182.772 201.088 182.715 201.886 182.544V180.379C201.031 180.493 200.232 180.55 199.605 180.436C198.978 180.379 198.465 180.094 198.18 179.581C198.009 179.296 197.952 178.954 197.952 178.555C197.952 178.156 197.952 177.7 197.952 177.187V171.317H201.886V169.265H197.952V165.618H197.895Z" fill="white"/>
<path d="M206.96 169.322H204.395V182.601H206.96V169.322Z" fill="white"/>
<path d="M218.819 179.296C218.192 180.15 217.223 180.606 215.968 180.606C214.714 180.606 213.802 180.207 213.175 179.353C212.547 178.498 212.205 177.415 212.205 175.99C212.205 175.078 212.319 174.28 212.605 173.596C212.89 172.913 213.289 172.4 213.859 172.001C214.429 171.602 215.113 171.431 215.968 171.431C217.223 171.431 218.192 171.83 218.819 172.685C219.446 173.539 219.788 174.622 219.788 175.99C219.788 177.301 219.446 178.441 218.819 179.296ZM219.446 169.892C218.477 169.265 217.337 168.98 215.968 168.98C214.657 168.98 213.517 169.265 212.547 169.835C211.578 170.405 210.837 171.26 210.267 172.286C209.697 173.368 209.469 174.565 209.469 175.933C209.469 177.301 209.754 178.555 210.267 179.581C210.78 180.663 211.521 181.461 212.547 182.088C213.517 182.715 214.657 183 216.025 183C217.337 183 218.477 182.715 219.446 182.088C220.415 181.461 221.157 180.663 221.727 179.638C222.24 178.555 222.525 177.358 222.525 175.99C222.525 174.622 222.24 173.425 221.727 172.343C221.157 171.26 220.415 170.462 219.446 169.892Z" fill="white"/>
<path d="M236.55 173.824C236.493 173.254 236.322 172.742 236.151 172.172C235.923 171.602 235.638 171.089 235.239 170.576C234.84 170.12 234.326 169.721 233.699 169.436C233.072 169.151 232.331 168.98 231.362 168.98C230.164 168.98 229.138 169.265 228.283 169.778C227.77 170.12 227.314 170.519 226.972 170.975V169.379H224.691V182.658H227.314V175.762C227.314 174.964 227.428 174.28 227.599 173.767C227.77 173.197 227.998 172.799 228.34 172.457C228.625 172.115 229.024 171.887 229.423 171.716C229.822 171.545 230.279 171.488 230.735 171.488C231.419 171.488 231.989 171.659 232.445 171.944C232.901 172.229 233.243 172.628 233.471 173.084C233.699 173.539 233.87 174.052 233.984 174.622C234.098 175.192 234.098 175.705 234.098 176.218V182.772H236.721V175.363C236.664 174.85 236.607 174.337 236.55 173.824Z" fill="white"/>
<path d="M18.8716 131.935C18.8145 132.961 18.6435 133.93 18.3014 134.728C18.0734 135.355 17.6743 136.096 17.0471 136.837C16.42 137.578 15.6218 138.205 14.5955 138.717C13.5693 139.23 12.315 139.515 10.8896 139.515C9.86338 139.515 9.00817 139.344 8.38102 139.059C7.69686 138.717 7.18373 138.319 6.84165 137.749C6.49957 137.236 6.32853 136.609 6.32853 135.868C6.32853 135.241 6.44256 134.728 6.72762 134.272C7.01269 133.816 7.41179 133.417 7.92491 133.075C8.43804 132.733 9.06519 132.391 9.80637 132.163C10.5475 131.935 11.4598 131.708 12.429 131.48C13.3982 131.252 14.5955 131.081 15.9639 130.853C16.8191 130.682 17.8453 130.568 18.9286 130.34C18.9286 130.796 18.8716 131.309 18.8716 131.935ZM24.1738 119.682C23.2616 117.802 21.7793 116.434 19.8408 115.579C17.9023 114.724 15.6788 114.325 13.1132 114.325C9.74935 114.325 7.06971 115.066 5.07422 116.548C3.07874 118.03 1.71041 119.967 1.02625 122.361L6.84165 124.185C7.29776 122.703 8.15297 121.677 9.35026 121.107C10.5475 120.48 11.8019 120.195 13.1132 120.195C15.2797 120.195 16.762 120.651 17.6743 121.62C18.4154 122.418 18.8716 123.558 18.9856 125.039C17.8453 125.21 16.705 125.381 15.6218 125.552C13.7973 125.837 12.1439 126.065 10.6046 126.407C9.06519 126.692 7.69686 127.034 6.55658 127.433C5.01721 127.946 3.81992 128.63 2.85069 129.428C1.88145 130.226 1.19729 131.195 0.741179 132.277C0.228055 133.36 0 134.557 0 135.982C0 137.578 0.342083 139.002 1.08326 140.313C1.82444 141.624 2.9077 142.65 4.33305 143.448C5.75839 144.246 7.52582 144.645 9.57831 144.645C12.1439 144.645 14.3105 144.189 16.0209 143.22C17.3322 142.479 18.5295 141.396 19.6127 140.028V143.904H25.2001V126.293C25.2001 125.039 25.1431 123.9 25.029 122.874C25.029 121.734 24.687 120.708 24.1738 119.682Z" fill="white"/>
<path d="M66.0792 134.386C65.566 135.811 64.8249 136.894 63.7986 137.692C62.7724 138.49 61.347 138.888 59.6366 138.888C57.9832 138.888 56.6149 138.49 55.5316 137.635C54.4483 136.78 53.6502 135.697 53.137 134.272C52.6239 132.847 52.3388 131.252 52.3388 129.485C52.3388 127.775 52.6239 126.179 53.137 124.755C53.6502 123.33 54.5054 122.19 55.5886 121.335C56.7289 120.48 58.0972 120.081 59.8076 120.081C61.461 120.081 62.7724 120.48 63.7986 121.278C64.8249 122.076 65.566 123.159 66.0792 124.584C66.5923 126.008 66.8203 127.604 66.8203 129.485C66.8203 131.366 66.5923 132.961 66.0792 134.386ZM66.8203 117.232C66.4782 116.947 66.1362 116.605 65.7371 116.377C63.9126 115.066 61.5751 114.382 58.8954 114.382C56.2158 114.382 53.8212 115.066 51.8257 116.377C49.8302 117.688 48.2909 119.511 47.2076 121.734C46.1243 124.014 45.5542 126.578 45.5542 129.485C45.5542 132.334 46.0673 134.899 47.1506 137.179C48.2338 139.458 49.7732 141.282 51.7117 142.593C53.6502 143.904 55.9877 144.588 58.6104 144.588C61.404 144.588 63.7416 143.904 65.623 142.593C65.7371 142.536 65.8511 142.422 65.9651 142.308V145.044C66.0221 146.411 65.7371 147.551 65.1669 148.463C64.5968 149.375 63.7986 150.059 62.7153 150.515C61.6891 150.971 60.4918 151.199 59.1805 151.199C58.0402 151.199 56.957 150.971 55.9877 150.458C54.9615 149.945 54.2203 149.204 53.6502 148.121L47.7777 151.028C48.5189 152.338 49.4882 153.478 50.6284 154.39C51.7687 155.302 53.137 156.043 54.5624 156.499C56.0447 157.012 57.5271 157.24 59.1235 157.24C61.29 157.24 63.2285 156.955 65.0529 156.385C66.8203 155.815 68.3027 154.903 69.5 153.706C70.6973 152.509 71.4955 150.971 71.9516 149.147C72.0656 148.52 72.1796 147.836 72.2366 147.209C72.2937 146.525 72.3507 145.841 72.3507 145.101V115.066H66.7633V117.232H66.8203Z" fill="white"/>
<path d="M82.3276 126.407C82.6127 124.755 83.1828 123.387 83.981 122.361C85.2353 120.765 87.1738 119.91 89.7964 119.91C92.134 119.91 93.7874 120.651 94.8707 122.076C95.6118 123.102 96.125 124.527 96.353 126.407H82.3276ZM97.1512 116.434C95.0987 115.066 92.5331 114.325 89.5684 114.325C86.7747 114.325 84.2661 114.952 82.1566 116.263C79.9901 117.517 78.3367 119.34 77.1394 121.62C75.9421 123.9 75.3149 126.635 75.3149 129.77C75.3149 132.676 75.9421 135.241 77.1394 137.464C78.3937 139.686 80.1041 141.453 82.2706 142.707C84.4371 143.961 87.0028 144.588 89.9105 144.588C92.6471 144.588 95.2127 143.847 97.4933 142.422C99.7738 140.997 101.484 139.002 102.568 136.381L96.239 134.443C95.6118 135.754 94.7566 136.78 93.6164 137.464C92.4761 138.148 91.1078 138.49 89.5684 138.49C87.1168 138.49 85.2923 137.692 83.981 136.096C82.9548 134.842 82.3846 133.189 82.1566 131.138H96.5811H99.7738H102.91C103.138 127.718 102.796 124.698 101.769 122.19C100.8 119.796 99.2607 117.859 97.1512 116.434Z" fill="white"/>
<path d="M131.702 121.62C131.303 120.366 130.733 119.226 129.878 118.144C129.079 117.061 127.939 116.149 126.571 115.465C125.203 114.781 123.435 114.382 121.326 114.382C118.646 114.382 116.365 114.952 114.541 116.149C113.572 116.776 112.716 117.517 111.975 118.371V115.18H106.274V143.847H112.774V129.143C112.774 127.376 112.945 125.951 113.344 124.812C113.743 123.672 114.256 122.817 114.883 122.133C115.51 121.506 116.251 121.05 117.05 120.765C117.848 120.48 118.646 120.366 119.444 120.366C120.983 120.366 122.181 120.708 123.093 121.335C124.005 121.962 124.632 122.817 125.088 123.843C125.545 124.869 125.83 125.894 125.944 127.034C126.058 128.117 126.115 129.143 126.115 130.055V143.847H132.614V127.832C132.614 127.148 132.557 126.236 132.443 125.153C132.329 124.014 132.044 122.817 131.702 121.62Z" fill="white"/>
<path d="M165.625 107.201H159.239V113.071H165.625V107.201Z" fill="white"/>
<path d="M165.625 115.18H159.239V143.847H165.625V115.18Z" fill="white"/>
<path d="M195.956 121.62C195.557 120.366 194.987 119.226 194.132 118.144C193.334 117.061 192.194 116.149 190.825 115.465C189.457 114.781 187.689 114.382 185.58 114.382C182.9 114.382 180.62 114.952 178.795 116.149C177.826 116.776 176.971 117.517 176.23 118.371V115.18H170.528V143.847H177.028V129.143C177.028 127.376 177.199 125.951 177.598 124.812C177.997 123.672 178.51 122.817 179.137 122.133C179.765 121.506 180.506 121.05 181.304 120.765C182.102 120.48 182.9 120.366 183.699 120.366C185.238 120.366 186.435 120.708 187.347 121.335C188.26 121.962 188.887 122.817 189.343 123.843C189.799 124.869 190.084 125.894 190.198 127.034C190.312 128.117 190.369 129.143 190.369 130.055V143.847H196.869V127.832C196.869 127.148 196.812 126.236 196.698 125.153C196.584 124.014 196.299 122.817 195.956 121.62Z" fill="white"/>
<path d="M218.933 131.935C218.876 132.961 218.705 133.93 218.363 134.728C218.135 135.355 217.735 136.096 217.108 136.837C216.481 137.578 215.683 138.205 214.657 138.717C213.63 139.23 212.376 139.515 210.951 139.515C209.925 139.515 209.069 139.344 208.442 139.059C207.758 138.717 207.245 138.319 206.903 137.749C206.561 137.236 206.39 136.609 206.39 135.868C206.39 135.241 206.504 134.728 206.789 134.272C207.074 133.816 207.473 133.417 207.986 133.075C208.499 132.733 209.126 132.391 209.868 132.163C210.609 131.935 211.521 131.708 212.49 131.48C213.459 131.252 214.657 131.081 216.025 130.853C216.88 130.682 217.906 130.568 218.99 130.34C218.933 130.796 218.933 131.309 218.933 131.935ZM224.235 119.682C223.323 117.802 221.84 116.434 219.902 115.579C217.963 114.724 215.74 114.325 213.174 114.325C209.811 114.325 207.131 115.066 205.135 116.548C203.14 118.03 201.772 119.967 201.087 122.361L206.903 124.185C207.359 122.703 208.214 121.677 209.411 121.107C210.609 120.48 211.863 120.195 213.174 120.195C215.341 120.195 216.823 120.651 217.735 121.62C218.477 122.418 218.933 123.558 219.047 125.039C217.906 125.21 216.766 125.381 215.683 125.552C213.858 125.837 212.205 126.065 210.666 126.407C209.126 126.692 207.758 127.034 206.618 127.433C205.078 127.946 203.881 128.63 202.912 129.428C201.943 130.226 201.258 131.195 200.802 132.277C200.346 133.36 200.118 134.614 200.118 135.982C200.118 137.578 200.46 139.002 201.201 140.313C201.943 141.624 203.026 142.65 204.451 143.448C205.877 144.246 207.644 144.645 209.696 144.645C212.262 144.645 214.429 144.189 216.139 143.22C217.45 142.479 218.648 141.396 219.731 140.028V143.904H225.318V126.293C225.318 125.039 225.261 123.9 225.147 122.874C225.033 121.734 224.748 120.708 224.235 119.682Z" fill="white"/>
<path d="M42.3044 115.009C41.3921 115.066 40.5369 115.237 39.6817 115.522C38.8265 115.807 38.0283 116.149 37.3442 116.662C36.489 117.175 35.8048 117.802 35.2347 118.6C34.9496 118.941 34.7215 119.34 34.4935 119.739V115.18H28.8491V143.847H35.2917V129.257C35.2917 128.174 35.4057 127.148 35.6908 126.179C35.9758 125.211 36.3749 124.413 36.9451 123.672C37.5152 122.931 38.1994 122.304 39.1116 121.848C40.0238 121.335 40.9931 120.993 42.0763 120.936C43.1026 120.879 44.0718 120.936 44.87 121.164V115.123C44.0148 115.009 43.1596 114.952 42.3044 115.009Z" fill="white"/>
<path d="M146.354 107.201H139.969V115.18H135.18V120.195H139.969V132.107C139.969 133.759 139.969 135.184 140.026 136.495C140.083 137.806 140.425 139.059 141.052 140.313C141.793 141.681 142.877 142.65 144.302 143.277C145.727 143.904 147.381 144.246 149.148 144.303C150.973 144.36 152.797 144.189 154.735 143.847V138.49C152.968 138.775 151.372 138.832 149.946 138.718C148.521 138.604 147.552 137.977 146.868 136.951C146.525 136.381 146.354 135.697 146.297 134.842C146.297 133.987 146.24 132.961 146.24 131.822V120.252H154.678V115.237H146.24V107.201H146.354Z" fill="white"/>
<path d="M243.05 107.201H236.664V113.071H243.05V107.201Z" fill="white"/>
<path d="M265 120.195V115.18H256.562V107.201H250.176V115.18H242.993H236.607V143.847H242.993V120.195H250.176V132.107C250.176 133.759 250.176 135.184 250.233 136.495C250.29 137.806 250.633 139.059 251.26 140.313C252.001 141.681 253.084 142.65 254.509 143.277C255.935 143.904 257.588 144.246 259.356 144.303C261.18 144.36 263.005 144.189 264.943 143.847V138.49C263.176 138.775 261.579 138.832 260.154 138.718C258.729 138.604 257.759 137.977 257.075 136.951C256.733 136.381 256.562 135.697 256.505 134.842C256.505 133.987 256.448 132.961 256.448 131.822V120.252H265V120.195Z" fill="#FF5C40"/>
</g>
<defs>
<clipPath id="clip0_54_5381">
<rect width="265" height="183" fill="white"/>
</clipPath>
</defs>
</svg>
