<svg width="147" height="33" viewBox="0 0 147 33" fill="none" xmlns="http://www.w3.org/2000/svg">
<path d="M31.7458 24.803L29.2001 19.6904C29.0874 19.4652 28.9072 19.285 28.7044 19.1499C27.533 18.4517 26.1588 19.6904 26.767 20.9066L29.3127 26.0193C29.4929 26.3571 29.5605 26.74 29.5605 27.1229C29.583 28.4067 28.4341 29.5328 27.15 29.5103H27.1275C26.2263 29.5103 25.3703 28.9697 24.9873 28.1814C24.9422 28.1139 24.1312 26.4697 23.8609 26.0418C20.324 20.276 11.966 20.276 8.40654 26.0418C8.1362 26.4697 7.32519 28.1139 7.28013 28.1814C6.89715 28.9922 6.04108 29.5103 5.13995 29.5103H5.11743C3.3377 29.5328 2.16623 27.6184 2.95472 26.0193L13.9935 4.03718C14.8947 2.25789 17.4178 2.25789 18.2964 4.03718L20.3915 8.22639C20.6168 8.67684 21.1124 8.99216 21.6081 8.96963C22.5993 8.99216 23.2752 7.88855 22.8246 6.98764L20.7295 2.82096C18.8371 -0.940319 13.4529 -0.940319 11.5605 2.82096L0.544203 24.803C-1.16794 28.1364 1.37775 32.2805 5.13995 32.2355C7.05485 32.258 8.87963 31.1094 9.73571 29.3977C10.1187 28.6319 10.6368 27.6634 10.7495 27.4607C13.205 23.4292 19.1074 23.4292 21.563 27.4607C21.6982 27.6634 22.1938 28.6319 22.5768 29.3977C23.4103 31.1094 25.2576 32.2355 27.1725 32.2355C30.9122 32.2805 33.4579 28.1589 31.7458 24.803Z" fill="white"/>
<path d="M27.1275 13.9697C27.1275 15.276 26.0686 16.3345 24.762 16.3345C21.6306 16.1994 21.6306 11.7399 24.762 11.6048C26.0686 11.6048 27.1275 12.6634 27.1275 13.9697Z" fill="white"/>
<path d="M49.7232 15.9967C49.7007 16.4021 49.6331 16.785 49.498 17.1003C49.4079 17.3481 49.2502 17.6409 49.0023 17.9337C48.7545 18.2265 48.4391 18.4742 48.0336 18.6769C47.6281 18.8796 47.1325 18.9697 46.5693 18.9697C46.1638 18.9697 45.8259 18.9021 45.5781 18.7895C45.3077 18.6544 45.105 18.4967 44.9698 18.2715C44.8346 18.0688 44.767 17.8211 44.767 17.5283C44.767 17.2805 44.8121 17.0778 44.9247 16.8976C45.0374 16.7174 45.1951 16.5598 45.3978 16.4247C45.6006 16.2895 45.8484 16.1544 46.1413 16.0643C46.4341 15.9742 46.7946 15.8841 47.1776 15.794C47.5605 15.7039 48.0336 15.6364 48.5743 15.5463C48.9122 15.4787 49.3177 15.4337 49.7458 15.3436C49.7458 15.5237 49.7458 15.749 49.7232 15.9967ZM51.8184 11.1318C51.4579 10.3886 50.8722 9.84805 50.1062 9.51021C49.3403 9.17237 48.4617 9.01471 47.4479 9.01471C46.1187 9.01471 45.0599 9.3075 44.2714 9.89309C43.4829 10.4787 42.9423 11.2444 42.6719 12.1904L44.9698 12.9111C45.15 12.3255 45.4879 11.9201 45.961 11.6949C46.4341 11.4472 46.9298 11.3345 47.4479 11.3345C48.304 11.3345 48.8897 11.5147 49.2502 11.8976C49.543 12.2129 49.7232 12.6634 49.7683 13.249C49.3177 13.3165 48.8672 13.3841 48.4391 13.4517C47.7182 13.5643 47.0649 13.6544 46.4567 13.7895C45.8484 13.9021 45.3077 14.0373 44.8572 14.1949C44.2489 14.3976 43.7758 14.6679 43.3928 14.9832C43.0098 15.2985 42.7395 15.6814 42.5593 16.1093C42.3791 16.5373 42.2889 17.0328 42.2889 17.5733C42.2889 18.2039 42.4241 18.767 42.717 19.285C43.0098 19.803 43.4379 20.2085 44.0011 20.5238C44.5643 20.8391 45.2627 20.9967 46.0737 20.9967C47.0874 20.9967 47.9435 20.8166 48.6194 20.4337C49.1375 20.1409 49.6106 19.713 50.0386 19.1724V20.7039H52.2464V13.7219C52.2464 13.2264 52.2239 12.776 52.1788 12.3706C52.1563 11.9427 52.0211 11.5372 51.8184 11.1318Z" fill="white"/>
<path d="M68.3766 16.9427C68.1738 17.5057 67.881 17.9337 67.4755 18.249C67.07 18.5643 66.5068 18.722 65.8309 18.722C65.1776 18.722 64.6369 18.5643 64.2089 18.2265C63.7808 17.8886 63.4655 17.4607 63.2627 16.8976C63.0599 16.3346 62.9473 15.7039 62.9473 15.0057C62.9473 14.33 63.0599 13.6994 63.2627 13.1363C63.4655 12.5733 63.8034 12.1228 64.2314 11.785C64.682 11.4472 65.2227 11.2895 65.8985 11.2895C66.5518 11.2895 67.07 11.4472 67.4755 11.7625C67.881 12.0778 68.1738 12.5057 68.3766 13.0688C68.5794 13.6318 68.6695 14.2625 68.6695 15.0057C68.6695 15.749 68.5794 16.3796 68.3766 16.9427ZM68.6695 10.1634C68.5343 10.0507 68.3991 9.91561 68.2414 9.82552C67.5205 9.3075 66.5969 9.03723 65.538 9.03723C64.4792 9.03723 63.533 9.3075 62.7446 9.82552C61.9561 10.3435 61.3478 11.0643 60.9198 11.9426C60.4917 12.8436 60.2664 13.8571 60.2664 15.0057C60.2664 16.1319 60.4692 17.1454 60.8972 18.0463C61.3253 18.9472 61.9335 19.6679 62.6995 20.1859C63.4655 20.7039 64.3891 20.9742 65.4254 20.9742C66.5293 20.9742 67.4529 20.7039 68.1964 20.1859C68.2414 20.1634 68.2865 20.1184 68.3315 20.0733V21.1544C68.3541 21.6949 68.2414 22.1454 68.0161 22.5058C67.7909 22.8661 67.4755 23.1364 67.0474 23.3166C66.6419 23.4967 66.1688 23.5868 65.6507 23.5868C65.2001 23.5868 64.7721 23.4967 64.3891 23.294C63.9836 23.0913 63.6907 22.7985 63.4655 22.3706L61.145 23.5193C61.4379 24.0373 61.8209 24.4877 62.2715 24.8481C62.722 25.2085 63.2627 25.5013 63.8259 25.6814C64.4116 25.8841 64.9974 25.9742 65.6282 25.9742C66.4842 25.9742 67.2502 25.8616 67.9711 25.6364C68.6695 25.4112 69.2552 25.0508 69.7283 24.5778C70.2014 24.1049 70.5168 23.4967 70.697 22.776C70.7421 22.5283 70.7871 22.258 70.8096 22.0103C70.8322 21.74 70.8547 21.4697 70.8547 21.1769V9.35255H68.6469V10.1634H68.6695Z" fill="white"/>
<path d="M74.8197 13.812C74.9323 13.1589 75.1576 12.6183 75.473 12.2129C75.9686 11.5823 76.7346 11.2444 77.7709 11.2444C78.6945 11.2444 79.3478 11.5372 79.7759 12.1003C80.0687 12.5057 80.2715 13.0688 80.3616 13.812H74.8197ZM80.6545 9.84805C79.8435 9.3075 78.8297 9.01471 77.6582 9.01471C76.5543 9.01471 75.5631 9.26246 74.7296 9.78048C73.8735 10.276 73.2202 10.9967 72.7471 11.8976C72.274 12.7985 72.0262 13.8796 72.0262 15.1183C72.0262 16.267 72.274 17.2805 72.7471 18.1589C73.2427 19.0373 73.9185 19.7355 74.7746 20.231C75.6307 20.7265 76.6445 20.9742 77.7934 20.9742C78.8747 20.9742 79.8885 20.6814 80.7896 20.1184C81.6908 19.5553 82.3666 18.767 82.7946 17.731L80.294 16.9652C80.0462 17.4832 79.7083 17.8886 79.2577 18.1589C78.8072 18.4292 78.2665 18.5643 77.6582 18.5643C76.6895 18.5643 75.9686 18.249 75.4505 17.6184C75.045 17.1229 74.8197 16.4697 74.7296 15.6589H80.4292H81.6908H82.9298C83.0199 14.3075 82.8848 13.1138 82.4793 12.1228C82.0963 11.1769 81.488 10.4111 80.6545 9.84805Z" fill="white"/>
<path d="M94.3066 11.8976C94.1489 11.4021 93.9236 10.9517 93.5856 10.5237C93.2703 10.0958 92.8197 9.73543 92.279 9.46516C91.7383 9.19489 91.04 9.03723 90.2064 9.03723C89.1476 9.03723 88.2465 9.26246 87.5256 9.73543C87.1426 9.98318 86.8047 10.276 86.5118 10.6138V9.35255H84.259V20.6814H86.8272V14.8481C86.8272 14.1499 86.8948 13.5868 87.0525 13.1363C87.2102 12.6859 87.4129 12.3481 87.6607 12.0778C87.9085 11.8075 88.2014 11.6499 88.5168 11.5372C88.8322 11.4246 89.1476 11.3796 89.463 11.3796C90.0712 11.3796 90.5443 11.5147 90.9048 11.7625C91.2652 12.0102 91.5131 12.3481 91.6933 12.7535C91.8735 13.1589 91.9861 13.5643 92.0312 14.0147C92.0763 14.4427 92.0988 14.8481 92.0988 15.2084V20.6589H94.667V14.3526C94.667 14.0823 94.6445 13.7219 94.5994 13.294C94.5544 12.8436 94.4642 12.3931 94.3066 11.8976Z" fill="white"/>
<path d="M107.711 6.19934H105.188V8.51917H107.711V6.19934Z" fill="white"/>
<path d="M107.711 9.35254H105.188V20.6814H107.711V9.35254Z" fill="white"/>
<path d="M119.696 11.8976C119.538 11.4021 119.313 10.9517 118.975 10.5237C118.66 10.0958 118.209 9.73543 117.668 9.46516C117.128 9.19489 116.429 9.03723 115.596 9.03723C114.537 9.03723 113.636 9.26246 112.915 9.73543C112.532 9.98318 112.194 10.276 111.901 10.6138V9.35255H109.648V20.6814H112.216V14.8481C112.216 14.1499 112.284 13.5868 112.442 13.1363C112.599 12.6859 112.802 12.3481 113.05 12.0778C113.298 11.83 113.591 11.6499 113.906 11.5372C114.221 11.4246 114.537 11.3796 114.852 11.3796C115.461 11.3796 115.934 11.5147 116.294 11.7625C116.655 12.0102 116.902 12.3481 117.083 12.7535C117.263 13.1589 117.375 13.5643 117.42 14.0147C117.466 14.4427 117.488 14.8481 117.488 15.2084V20.6589H120.056V14.3526C120.056 14.0823 120.034 13.7219 119.989 13.294C119.944 12.8436 119.854 12.3931 119.696 11.8976Z" fill="white"/>
<path d="M128.775 15.9967C128.752 16.4021 128.685 16.785 128.549 17.1003C128.459 17.3481 128.302 17.6409 128.054 17.9337C127.806 18.2265 127.491 18.4742 127.085 18.6769C126.68 18.8796 126.184 18.9697 125.621 18.9697C125.215 18.9697 124.877 18.9021 124.63 18.7895C124.359 18.6544 124.156 18.4967 124.021 18.2715C123.886 18.0688 123.818 17.8211 123.818 17.5283C123.818 17.2805 123.864 17.0778 123.976 16.8976C124.089 16.7174 124.247 16.5598 124.449 16.4247C124.652 16.2895 124.9 16.1544 125.193 16.0643C125.486 15.9742 125.846 15.8841 126.229 15.794C126.612 15.7039 127.085 15.6364 127.626 15.5463C127.964 15.4787 128.369 15.4337 128.797 15.3436C128.797 15.5237 128.775 15.749 128.775 15.9967ZM130.87 11.1318C130.509 10.3886 129.924 9.84805 129.158 9.51021C128.392 9.17237 127.513 9.01471 126.499 9.01471C125.17 9.01471 124.111 9.3075 123.323 9.89309C122.534 10.4787 121.994 11.2444 121.723 12.1904L124.021 12.9111C124.201 12.3255 124.539 11.9201 125.012 11.6949C125.486 11.4472 125.981 11.3345 126.499 11.3345C127.355 11.3345 127.941 11.5147 128.302 11.8976C128.594 12.2129 128.775 12.6634 128.82 13.249C128.369 13.3165 127.919 13.3841 127.491 13.4517C126.77 13.5643 126.116 13.6544 125.508 13.7895C124.9 13.9021 124.359 14.0373 123.909 14.1949C123.3 14.3976 122.827 14.6679 122.444 14.9832C122.061 15.2985 121.791 15.6814 121.611 16.1093C121.431 16.5373 121.34 17.0328 121.34 17.5733C121.34 18.2039 121.476 18.767 121.768 19.285C122.061 19.803 122.489 20.2085 123.053 20.5238C123.616 20.8391 124.314 20.9967 125.125 20.9967C126.139 20.9967 126.995 20.8166 127.671 20.4337C128.189 20.1409 128.662 19.713 129.09 19.1724V20.7039H131.298V13.7219C131.298 13.2264 131.275 12.776 131.23 12.3706C131.208 11.9427 131.073 11.5372 130.87 11.1318Z" fill="white"/>
<path d="M59.0049 9.30748C58.6444 9.33 58.3065 9.39757 57.9686 9.51018C57.6306 9.62279 57.3153 9.75793 57.0449 9.96063C56.707 10.1633 56.4367 10.4111 56.2114 10.7264C56.0987 10.8615 56.0086 11.0192 55.9185 11.1769V9.37504H53.6882V20.7039H56.2339V14.9156C56.2339 14.4877 56.279 14.0823 56.3916 13.6994C56.5042 13.3165 56.6619 13.0012 56.8872 12.7084C57.1125 12.4156 57.3828 12.1679 57.7433 11.9877C58.0812 11.785 58.4867 11.6498 58.9148 11.6273C59.3203 11.6048 59.7032 11.6273 60.0186 11.7174V9.35252C59.6582 9.28495 59.3428 9.28495 59.0049 9.30748Z" fill="white"/>
<path d="M100.096 6.19934H97.5731V9.35251H95.6808V11.3345H97.5731V16.0417C97.5731 16.6949 97.5731 17.2579 97.5957 17.776C97.6182 18.294 97.7533 18.7895 98.0012 19.285C98.294 19.8255 98.7221 20.2084 99.2853 20.4562C99.8485 20.7039 100.502 20.839 101.2 20.8616C101.921 20.8841 102.642 20.8165 103.408 20.6814V18.5643C102.71 18.6769 102.079 18.6994 101.516 18.6544C100.952 18.6093 100.569 18.3616 100.299 17.9561C100.164 17.7309 100.096 17.4607 100.074 17.1228C100.074 16.785 100.051 16.3796 100.051 15.9291V11.3345H103.385V9.35251H100.051V6.19934H100.096Z" fill="white"/>
<path d="M138.304 6.19934H135.781V8.51917H138.304V6.19934Z" fill="white"/>
<path d="M147 11.3345V9.35251H143.666V6.19934H141.143V9.35251H138.327H135.803V20.6814H138.327V11.3345H141.165V16.0417C141.165 16.6949 141.165 17.2579 141.188 17.776C141.21 18.294 141.345 18.7895 141.593 19.285C141.886 19.8255 142.314 20.2084 142.877 20.4562C143.441 20.7039 144.094 20.839 144.792 20.8616C145.513 20.8841 146.234 20.8165 147 20.6814V18.5643C146.302 18.6769 145.671 18.6994 145.108 18.6544C144.544 18.6093 144.161 18.3616 143.891 17.9561C143.756 17.7309 143.688 17.4607 143.666 17.1228C143.666 16.785 143.643 16.3796 143.643 15.9291V11.3345H147Z" fill="white"/>
</svg>
