<svg width="31" height="20" viewBox="0 0 31 20" fill="none" xmlns="http://www.w3.org/2000/svg">
<path d="M30.127 9.54045C30.127 9.30824 29.9866 8.99966 29.844 8.84975L21.8102 0.31336C21.4351 -0.0743704 20.8274 -0.119203 20.3903 0.274131C19.9994 0.626139 19.9896 1.31227 20.351 1.69443L26.7999 8.53597H1.00416C0.449358 8.53597 0 8.98569 0 9.54013C0 10.0949 0.449725 10.5443 1.00416 10.5443H26.7999L20.351 17.3858C19.9896 17.768 20.0151 18.4373 20.3903 18.8058C20.7861 19.1949 21.4411 19.1602 21.8102 18.7665L29.844 10.2305C30.0801 9.99899 30.1232 9.77588 30.127 9.54016V9.54045Z" fill="#264A75"/>
</svg>
