<svg width="33" height="33" viewBox="0 0 33 33" fill="none" xmlns="http://www.w3.org/2000/svg">
<path d="M12.9013 1C6.33879 1 1 6.33879 1 12.9013C1 19.4638 6.33879 24.8026 12.9013 24.8026C16.0544 24.8026 18.9225 23.5671 21.053 21.5598L23.9241 24.4309L22.7305 25.6244C22.5918 25.7649 22.5918 25.9906 22.7305 26.1311L28.4954 31.896C28.6358 32.0347 28.8615 32.0347 29.002 31.896L31.8958 29.0022C32.0345 28.8617 32.0345 28.636 31.8958 28.4955L26.1309 22.7307C26.0085 22.6055 25.8138 22.5867 25.6692 22.6857C25.6529 22.6995 25.6378 22.7144 25.6243 22.7307L24.4307 23.9129L21.5596 21.0418C23.5636 18.9121 24.8024 16.0516 24.8024 12.9017C24.8024 6.33924 19.4636 1.00045 12.9011 1.00045L12.9013 1ZM12.9013 1.74317C19.074 1.74317 24.0595 6.72836 24.0595 12.9014C24.0595 19.0744 19.0743 24.0595 12.9013 24.0595C6.7283 24.0595 1.74311 19.0744 1.74311 12.9014C1.74311 6.72836 6.7283 1.74317 12.9013 1.74317ZM12.9013 5.69522C11.3137 5.69522 10.0189 6.99002 10.0189 8.57763C10.0189 10.1652 11.3137 11.4601 12.9013 11.4601C14.4889 11.4601 15.7837 10.1652 15.7837 8.57763C15.7837 6.99002 14.4889 5.69522 12.9013 5.69522ZM12.9013 6.41574C14.0996 6.41574 15.0632 7.37933 15.0632 8.57763C15.0632 9.77568 14.0996 10.7393 12.9013 10.7393C11.703 10.7393 10.7394 9.77568 10.7394 8.57763C10.7394 7.37933 11.703 6.41574 12.9013 6.41574ZM12.9013 12.901C9.73489 12.901 7.13646 15.311 7.13646 18.3055C7.13646 18.5045 7.29781 18.6659 7.49686 18.6659H18.3057C18.5047 18.6659 18.6661 18.5045 18.6661 18.3055C18.6661 15.311 16.0677 12.901 12.9012 12.901H12.9013ZM12.9013 13.6216C15.5711 13.6216 17.7123 15.5367 17.9116 17.945H7.89095C8.09026 15.5366 10.2315 13.6216 12.9013 13.6216ZM25.8719 23.4962L31.1298 28.7541L28.7541 31.1299L23.4961 25.872L25.8719 23.4962Z" fill="#0033FF" stroke="#0033FF" stroke-width="0.5"/>
</svg>
