<svg width="23" height="15" viewBox="0 0 23 15" fill="none" xmlns="http://www.w3.org/2000/svg">
<path d="M22.9999 10.1932C22.9999 7.91935 21.5625 6.01137 19.5499 5.33182C20.0727 4.8875 20.3863 4.2602 20.3863 3.52838C20.3863 2.22156 19.3409 1.17611 18.034 1.17611C16.7272 1.17611 15.6818 2.22156 15.6818 3.52838C15.6818 4.2602 15.9954 4.88747 16.5181 5.33182C15.8125 5.56705 15.1852 5.95909 14.6625 6.45566C14.192 6.16816 13.6693 5.95906 13.1466 5.82838C14.0613 5.27952 14.6625 4.28637 14.6625 3.13636C14.6625 1.41136 13.2511 0 11.5261 0C9.80111 0 8.38974 1.41136 8.38974 3.13636C8.38974 4.2602 8.99085 5.25344 9.90565 5.82838C9.35679 5.9852 8.8602 6.19429 8.38974 6.45566C7.86701 5.95906 7.21358 5.56702 6.53409 5.33182C7.05682 4.8875 7.37046 4.2602 7.37046 3.52838C7.37046 2.22156 6.325 1.17611 5.01818 1.17611C3.71136 1.17611 2.66591 2.22156 2.66591 3.52838C2.66591 4.2602 2.97955 4.88747 3.50227 5.33182C1.43753 6.01137 0 7.91929 0 10.1932V11.6307H5.01818C4.99205 11.892 4.96591 12.1795 4.96591 12.467V14.2443H18.0341V12.467C18.0341 12.1795 18.008 11.9182 17.9818 11.6307H23L22.9999 10.1932ZM18.034 2.24773C18.7659 2.24773 19.3409 2.82273 19.3409 3.55455C19.3409 4.28637 18.7659 4.86137 18.034 4.86137C17.3022 4.86137 16.7272 4.28637 16.7272 3.55455C16.7272 2.82273 17.3022 2.24773 18.034 2.24773ZM11.4996 1.07156C12.6496 1.07156 13.5906 2.01247 13.5906 3.16247C13.5906 4.31247 12.6496 5.25338 11.4996 5.25338C10.3496 5.25338 9.40873 4.31247 9.40873 3.16247C9.40873 2.01247 10.3496 1.07156 11.4996 1.07156ZM4.96525 2.24773C5.69707 2.24773 6.27207 2.82273 6.27207 3.55455C6.27207 4.28637 5.69707 4.86137 4.96525 4.86137C4.23343 4.86137 3.65843 4.28637 3.65843 3.55455C3.65843 2.82273 4.23343 2.24773 4.96525 2.24773ZM1.0448 10.5851V10.193C1.0448 7.97141 2.7959 6.14193 4.96525 6.14193C5.90616 6.14193 6.7948 6.50784 7.47434 7.08284C6.40272 7.97147 5.61869 9.17375 5.22662 10.5851L1.0448 10.5851ZM16.9883 13.1987H6.011V12.4669C6.011 9.27826 8.46782 6.66463 11.4996 6.66463C14.5315 6.66463 16.9883 9.27826 16.9883 12.4669V13.1987ZM21.9542 10.5851H17.7724C17.3803 9.17372 16.5962 7.97144 15.5246 7.08281C16.2042 6.50781 17.0928 6.1419 18.0337 6.1419C20.203 6.1419 21.9542 7.97145 21.9542 10.193V10.5851Z" fill="#0033FF"/>
</svg>
