<svg width="15" height="26" viewBox="0 0 15 26" fill="none" xmlns="http://www.w3.org/2000/svg">
<path d="M8.8674 5.15094V0.490566C8.8674 0.245283 8.61878 0 8.37017 0H5.55249C5.30387 0 5.13812 0.163522 5.05525 0.408805C4.97238 1.14465 3.48066 4.57862 1.57459 5.39623C1.24309 5.55975 0.828729 5.64151 0.497238 5.64151C0.248619 5.64151 0 5.88679 0 6.21384V9.72956C0 9.97484 0.248619 10.2201 0.497238 10.2201H2.1547C2.40331 10.2201 2.65193 10.4654 2.65193 10.7107C2.65193 16.761 2.73481 20.522 2.73481 20.522C3.0663 23.3019 4.55801 24.9371 7.20994 25.5912C8.28729 25.9182 9.44751 26 10.6077 26C11.9337 25.9182 13.2597 25.7547 14.5856 25.3459C14.8343 25.2642 14.9171 25.1006 14.9171 24.8553V20.522C14.9171 20.195 14.5856 19.9497 14.2541 20.0314C13.674 20.195 13.0939 20.3585 12.5967 20.522C11.2707 20.9308 10.1934 20.6855 9.28177 19.7862C9.19889 19.6226 9.03315 19.4591 9.03315 19.2956C8.8674 18.6415 8.8674 17.9057 8.8674 17.2516V10.6289C8.8674 10.3836 9.11602 10.1384 9.36464 10.1384H14.2541C14.5028 10.1384 14.7514 9.89308 14.7514 9.6478V6.13208C14.7514 5.88679 14.5028 5.64151 14.2541 5.64151H9.36464C9.11602 5.64151 8.8674 5.39623 8.8674 5.15094Z" fill="#657C97"/>
</svg>
