<svg width="14" height="17" viewBox="0 0 14 17" fill="none" xmlns="http://www.w3.org/2000/svg">
<path d="M0.675887 0.514396C0.480666 0.60376 0.369715 0.812945 0.404991 1.02461L2.63456 14.8881L2.63461 14.8882C2.66357 15.0704 2.79547 15.2191 2.97267 15.2701C3.15005 15.321 3.34077 15.2648 3.4621 15.1258L5.78488 12.4068L8.41793 16.4527C8.4873 16.5589 8.59618 16.6328 8.72029 16.6584C8.84452 16.6837 8.97372 16.6586 9.07925 16.5883L11.8683 14.7716C12.086 14.6281 12.1475 14.3364 12.0062 14.1174L9.3661 10.0738L12.7939 9.04071L12.7939 9.04055C12.9697 8.98629 13.0986 8.83524 13.1243 8.653C13.15 8.4706 13.0682 8.28984 12.9142 8.18891L1.1338 0.552373L1.13364 0.552425C0.997764 0.462007 0.824988 0.447622 0.67608 0.514372L0.675887 0.514396ZM1.51953 1.92624L11.5393 8.42716L8.488 9.34519C8.34621 9.38887 8.23311 9.4964 8.18198 9.63567C8.13085 9.77494 8.14766 9.93003 8.22755 10.0551L10.9513 14.2351L8.96142 15.533L6.23765 11.353C6.15578 11.2256 6.01817 11.1448 5.86696 11.1356C5.7159 11.1263 5.56932 11.1895 5.47242 11.3061L3.40981 13.7213L1.51953 1.92624Z" fill="#0033FF"/>
</svg>
