<svg width="19" height="19" viewBox="0 0 19 19" fill="none" xmlns="http://www.w3.org/2000/svg">
<path d="M9.87497 1C4.97599 1 1 4.97599 1 9.87498C1 14.774 4.97599 18.75 9.87497 18.75C14.774 18.75 18.7499 14.774 18.7499 9.87498C18.7499 4.97599 14.774 1 9.87497 1ZM2.207 9.87498C2.207 9.02299 2.349 8.20649 2.633 7.42549C3.44949 7.60299 4.33699 7.78049 5.22449 7.88699C5.15349 8.52599 5.11799 9.20049 5.11799 9.87498C5.11799 10.798 5.18899 11.6855 5.33099 12.5375C4.33699 12.3955 3.37849 12.1825 2.5265 11.934C2.278 11.2595 2.207 10.585 2.207 9.87498ZM6.25398 9.87498C6.25398 9.23599 6.28948 8.59699 6.36048 7.99349C7.31898 8.09999 8.27748 8.13549 9.27148 8.17099V12.8927C8.31298 12.8572 7.38998 12.7862 6.50248 12.6797C6.36048 11.8277 6.25398 10.8692 6.25398 9.87519V9.87498ZM10.4783 2.3133C11.6853 2.77479 12.7148 4.54979 13.2118 6.89299C12.3243 6.96399 11.4013 6.99949 10.4783 6.99949V2.3133ZM9.30677 2.3133V6.99929C8.38378 6.96379 7.46078 6.92829 6.57328 6.85729C7.07028 4.51429 8.09978 2.73929 9.30677 2.3133ZM9.30677 14.0636V17.4361C8.27728 17.0456 7.38978 15.7321 6.85728 13.8861C7.63828 13.9926 8.45477 14.0636 9.30677 14.0636ZM10.4783 17.4361V14.0991H10.7623C11.4723 14.0991 12.1823 14.0636 12.8923 14.0281C12.3598 15.8031 11.4723 17.0811 10.4783 17.4361ZM10.7623 12.9278H10.4783V8.20608C11.4723 8.20608 12.4308 8.17058 13.3893 8.06408C13.4603 8.63208 13.4958 9.23558 13.4958 9.87458C13.4958 10.9041 13.3893 11.9336 13.2118 12.8566C12.3953 12.8921 11.5788 12.9276 10.7623 12.9276V12.9278ZM14.5608 7.95778C15.4838 7.85128 16.3713 7.70929 17.1877 7.53179C17.4362 8.27728 17.5427 9.05828 17.5427 9.87478C17.5427 10.7623 17.4007 11.5788 17.1167 12.3598C16.2648 12.5373 15.3418 12.6438 14.3833 12.7503C14.5608 11.8628 14.6318 10.9043 14.6318 9.87478C14.6673 9.20028 14.6318 8.56128 14.5608 7.95778ZM16.7263 6.43129C15.9808 6.57329 15.1998 6.67979 14.3478 6.78629C14.0283 5.15329 13.4603 3.76879 12.7148 2.73929C14.4898 3.44929 15.9098 4.76279 16.7263 6.43129ZM6.99928 2.73929C6.28928 3.73329 5.72128 5.08229 5.40178 6.71529C4.58529 6.60879 3.80429 6.46679 3.09429 6.32479C3.91079 4.69179 5.29528 3.44929 6.99928 2.73929ZM2.98779 13.283C3.80429 13.4605 4.65629 13.638 5.54378 13.7445C5.86328 15.0225 6.36028 16.1585 6.99928 16.975C5.25978 16.3005 3.83979 14.9515 2.98779 13.283ZM12.7501 17.0105C13.3181 16.2295 13.8151 15.1645 14.1346 13.9575C14.9511 13.8865 15.7676 13.78 16.5485 13.6735C15.6966 15.1645 14.3831 16.336 12.7501 17.0105Z" fill="#0033FF" stroke="#F0F4F8" stroke-width="0.2"/>
</svg>
